<?xml version="1.0" encoding="UTF-8"?>
<svg version="1.1" xmlns="http://www.w3.org/2000/svg" width="512" height="512">
<path d="M0 0 C0.79223969 -0.00067474 1.58447937 -0.00134949 2.40072632 -0.00204468 C16.40059316 0.01678252 30.0562149 0.87139573 43.875 3.25 C45.26090332 3.48348145 45.26090332 3.48348145 46.67480469 3.72167969 C73.14035628 8.36915299 98.14568104 17.81407071 121.875 30.25 C122.91648193 30.78657227 122.91648193 30.78657227 123.97900391 31.33398438 C140.70593262 40.02581664 155.91357635 51.66550575 169.875 64.25 C171.25945312 65.47009766 171.25945312 65.47009766 172.671875 66.71484375 C180.65940991 73.79470424 187.92523716 81.08216485 194.6015625 89.421875 C196.05011102 91.22384945 197.52194922 93.00751872 199.0234375 94.765625 C210.51467778 108.28961175 219.7161596 123.53301337 227.875 139.25 C228.2251416 139.92289063 228.5752832 140.59578125 228.93603516 141.2890625 C242.48991715 167.73566152 250.48568384 196.79093455 253.875 226.25 C253.9692627 227.0455127 254.06352539 227.84102539 254.16064453 228.66064453 C255.06252498 237.21640848 255.11838539 245.78138539 255.125 254.375 C255.12567474 255.16757202 255.12634949 255.96014404 255.12704468 256.7767334 C255.10822201 270.78009728 254.22590539 284.42471529 251.875 298.25 C251.71402832 299.22227539 251.55305664 300.19455078 251.38720703 301.19628906 C247.46458259 324.09898971 240.1491815 346.40849422 229.875 367.25 C229.50294434 368.01183594 229.13088867 368.77367187 228.74755859 369.55859375 C218.79934336 389.7282586 206.20409427 408.42889501 190.95703125 424.984375 C189.0505956 427.05892036 187.2073439 429.17265931 185.375 431.3125 C178.21488624 439.49079508 170.36418787 446.48307902 161.875 453.25 C160.79412109 454.16652344 160.79412109 454.16652344 159.69140625 455.1015625 C137.30254719 473.85871715 110.50948155 488.03120269 82.875 497.25 C82.0711084 497.52247559 81.2672168 497.79495117 80.43896484 498.07568359 C66.5284631 502.72371083 52.32251602 505.7921544 37.875 508.25 C37.08931641 508.38422363 36.30363281 508.51844727 35.49414062 508.65673828 C-2.65895809 514.77189905 -44.88074827 510.11462636 -81.125 497.25 C-82.34268066 496.81880859 -82.34268066 496.81880859 -83.58496094 496.37890625 C-95.52440821 492.09864327 -106.95982452 487.26573179 -118.125 481.25 C-118.77774902 480.90356445 -119.43049805 480.55712891 -120.10302734 480.20019531 C-141.56450181 468.76035547 -160.55989541 454.01327386 -178.125 437.25 C-178.99769531 436.41855469 -179.87039062 435.58710938 -180.76953125 434.73046875 C-186.71403516 428.93206632 -191.99888519 422.77654823 -197.125 416.25 C-197.91648438 415.26386719 -198.70796875 414.27773438 -199.5234375 413.26171875 C-217.23136187 390.83354324 -231.07971125 365.36436823 -240.125 338.25 C-240.53371338 337.0441626 -240.53371338 337.0441626 -240.95068359 335.81396484 C-244.26523112 325.89426844 -246.77939759 315.86947304 -248.875 305.625 C-249.07375732 304.66110352 -249.27251465 303.69720703 -249.47729492 302.70410156 C-252.51598758 287.06909656 -253.5071267 271.52487638 -253.4375 255.625 C-253.43567719 254.75392609 -253.43385437 253.88285217 -253.43197632 252.98538208 C-253.38251402 238.88572675 -252.66282653 225.14701601 -250.125 211.25 C-249.9693457 210.34749512 -249.81369141 209.44499023 -249.65332031 208.51513672 C-244.97346909 182.02867336 -235.60666654 156.99638191 -223.125 133.25 C-222.75133301 132.53440918 -222.37766602 131.81881836 -221.99267578 131.08154297 C-211.07911636 110.44033987 -196.18964589 92.08305945 -180.125 75.25 C-179.29355469 74.37730469 -178.46210938 73.50460938 -177.60546875 72.60546875 C-171.80706632 66.66096484 -165.65154823 61.37611481 -159.125 56.25 C-158.13886719 55.45851562 -157.15273437 54.66703125 -156.13671875 53.8515625 C-119.15781748 24.65526935 -74.84338104 6.7959487 -28.125 1.25 C-27.32368652 1.15428711 -26.52237305 1.05857422 -25.69677734 0.95996094 C-17.14744581 0.05969164 -8.5871031 0.00661038 0 0 Z " fill="#8150E5" transform="translate(256.125,0.75)"/>
<path d="M0 0 C132.88567073 0 132.88567073 0 166.25 31.8125 C191.77635044 58.3714698 197.73972885 92.72966457 197.17739868 128.14341736 C196.60556476 153.89566869 187.26789699 177.14194643 171 197 C170.31421875 197.85078125 169.6284375 198.7015625 168.921875 199.578125 C149.60831017 222.32521247 121.74891576 233.20851404 93 238 C62.31 238 31.62 238 0 238 C0 159.46 0 80.92 0 0 Z " fill="#FDFDFE" transform="translate(157,117)"/>
<path d="M0 0 C0.66 0 1.32 0 2 0 C3.38941956 1.40818787 3.38941956 1.40818787 5.02563477 3.39233398 C9.30488033 8.42068374 13.91746151 13.06130407 18.58984375 17.72265625 C19.49319962 18.62696884 20.39655548 19.53128143 21.32728577 20.46299744 C23.22796068 22.36434943 25.12959608 24.26467553 27.03295898 26.16333008 C29.45118392 28.57585861 31.86488958 30.99285081 34.27727413 33.41121769 C36.60818401 35.74664575 38.94293956 38.07822177 41.27734375 40.41015625 C42.13279282 41.26762955 42.98824188 42.12510284 43.86961365 43.00856018 C44.68728714 43.82308151 45.50496063 44.63760284 46.34741211 45.47680664 C47.05465927 46.18325821 47.76190643 46.88970978 48.49058533 47.61756897 C50.55933249 49.58163154 52.66188553 51.45410951 54.81916809 53.31817627 C58.89686292 56.86454496 62.73638566 60.60170964 66.54589844 64.43237305 C67.25265213 65.13898071 67.95940582 65.84558838 68.68757629 66.5736084 C70.99722408 68.88394653 73.30331941 71.19779555 75.609375 73.51171875 C77.22481709 75.12902892 78.84048233 76.74611622 80.45635986 78.36299133 C84.69185712 82.60228954 88.92434353 86.84458122 93.15618896 91.08752441 C97.46559116 95.4071685 101.77783361 99.72397514 106.08984375 104.04101562 C113.04796799 111.00791489 120.0043348 117.97656317 126.95851135 124.94740295 C129.97061588 127.96666497 132.9833553 130.98527233 136 134 C131.44249768 148.38690645 126.64084594 162.43232427 120 176 C119.62649414 176.76618652 119.25298828 177.53237305 118.86816406 178.32177734 C108.92074873 198.48579285 96.3252624 217.18305572 81.08203125 233.734375 C79.1755956 235.80892036 77.3323439 237.92265931 75.5 240.0625 C68.33988624 248.24079508 60.48918787 255.23307902 52 262 C50.91912109 262.91652344 50.91912109 262.91652344 49.81640625 263.8515625 C27.44481471 282.5942506 0.63403991 296.82955316 -27 306 C-27.88365234 306.29374512 -28.76730469 306.58749023 -29.67773438 306.89013672 C-32.34130111 307.76121317 -35.01108061 308.60680925 -37.6875 309.4375 C-38.47697021 309.685 -39.26644043 309.9325 -40.07983398 310.1875 C-54.3244683 314.40857906 -54.3244683 314.40857906 -58.78491211 312.06030273 C-60.40753828 310.64253667 -61.75522106 309.16246674 -63.125 307.5 C-64.06187074 306.44503631 -65.0020328 305.39298715 -65.9453125 304.34375 C-66.40218697 303.826063 -66.85906143 303.30837601 -67.32978058 302.77500153 C-69.03359464 300.96429778 -70.81852155 299.37449976 -72.71179199 297.76403809 C-76.87611963 294.15342297 -80.78523206 290.34280318 -84.66601562 286.43164062 C-85.38585129 285.7103447 -86.10568695 284.98904877 -86.84733582 284.24589539 C-88.39635107 282.69310046 -89.944211 281.1391523 -91.49101257 279.58415222 C-93.94460379 277.11769509 -96.40139468 274.6544649 -98.85900879 272.1920166 C-104.95953992 266.0781779 -111.05459841 259.95889274 -117.14984131 253.83978271 C-122.31054082 248.65929716 -127.47332051 243.48090148 -132.63883972 238.30522156 C-135.04926275 235.88835615 -137.45663357 233.46847913 -139.8638916 231.04846191 C-141.35377295 229.55494518 -142.84379649 228.06157027 -144.33398438 226.56835938 C-144.9939592 225.90321823 -145.65393402 225.23807709 -146.33390808 224.55278015 C-150.18273915 220.70351874 -154.14551452 217.04611401 -158.27231598 213.49596405 C-160.42384677 211.63300029 -162.47778009 209.68965821 -164.5 207.6875 C-165.50546875 206.70330078 -165.50546875 206.70330078 -166.53125 205.69921875 C-168 204 -168 204 -168 202 C-166.9684227 201.99191315 -165.9368454 201.98382629 -164.87400818 201.97549438 C-155.09234109 201.89758479 -145.31080548 201.80973767 -135.52931118 201.71247292 C-130.50207141 201.66279425 -125.47484981 201.61646476 -120.44750977 201.578125 C-115.58444769 201.54090923 -110.72154922 201.49445763 -105.85862923 201.44193649 C-104.01498382 201.42358324 -102.1713036 201.40840719 -100.32760429 201.39665604 C-62.8066568 201.14923305 -29.97205479 190.87852649 -2.9140625 163.921875 C21.34128954 138.0367167 27.23087702 104.76442896 26.1640625 70.50634766 C25.03204086 46.31275416 17.16280161 21.03312815 1.1796875 2.3984375 C0 1 0 1 0 0 Z " fill="#3C176B" transform="translate(366,192)"/>
<path d="M0 0 C75.17347874 0 75.17347874 0 97.6875 21.0625 C112.51238941 36.5015634 117.37504593 56.00275984 117.37060547 76.8840332 C117.37495955 79.16629829 117.41133023 81.44659317 117.44921875 83.72851562 C117.55074076 96.75256539 115.39764045 108.73935454 109.1875 120.375 C108.66385864 121.37684326 108.66385864 121.37684326 108.12963867 122.39892578 C98.83264513 139.75978903 83.28873039 149.98650603 64.875 156.25 C62.59502219 156.8774672 60.3017506 157.45782101 58 158 C57.05713135 158.22429687 57.05713135 158.22429687 56.09521484 158.453125 C37.5849745 162.60328278 18.96271306 161 0 161 C0 107.87 0 54.74 0 0 Z " fill="#6B43BD" transform="translate(196,156)"/>
<path d="M0 0 C3.57294032 1.32002058 6.63953492 2.89521388 9.8125 5 C10.60269531 5.515625 11.39289063 6.03125 12.20703125 6.5625 C12.79871094 7.036875 13.39039063 7.51125 14 8 C14 8.66 14 9.32 14 10 C14.56203125 10.23847656 15.1240625 10.47695312 15.703125 10.72265625 C33.08073781 20.38673684 44.34204633 45.03427494 49.78125 63.37890625 C59.22241816 97.88725004 55.97887381 135.77069908 38.4140625 166.9921875 C22.62072558 193.87036853 -4.07581084 211.8360834 -33.91369629 219.77526855 C-45.50853527 222.43241059 -56.83423871 222.3845582 -68.68359375 222.29296875 C-70.83691612 222.2873608 -72.99024236 222.28309638 -75.14356995 222.28010559 C-80.7609854 222.26875119 -86.37816137 222.23936686 -91.9954834 222.20599365 C-97.74760704 222.175088 -103.49977006 222.16155681 -109.25195312 222.14648438 C-120.50142325 222.11448656 -131.75065407 222.0617974 -143 222 C-143 209.46 -143 196.92 -143 184 C-139.27589844 183.96261719 -135.55179688 183.92523438 -131.71484375 183.88671875 C-128.06073526 183.84035185 -124.4067231 183.78917351 -120.75268555 183.73754883 C-118.23614481 183.70453604 -115.71953423 183.67643265 -113.20288086 183.65356445 C-93.40878016 183.51785451 -93.40878016 183.51785451 -74 180 C-72.78799927 179.71056519 -72.78799927 179.71056519 -71.55151367 179.4152832 C-54.64858412 175.29718512 -39.52187312 167.91367577 -26 157 C-25.21351074 156.36819824 -25.21351074 156.36819824 -24.41113281 155.72363281 C-3.61713514 138.67958588 10.20282033 112.30734967 13.53515625 85.70703125 C14.24884382 78.36373928 14.28981156 70.9965177 14.3125 63.625 C14.31626648 62.94726532 14.32003296 62.26953064 14.32391357 61.57125854 C14.3493855 52.52968235 13.6797593 43.88433391 12 35 C11.864729 34.27216309 11.72945801 33.54432617 11.59008789 32.79443359 C9.27874911 21.23625141 4.79846919 10.71502829 0 0 Z " fill="#9A74EB" transform="translate(339,171)"/>
<path d="M0 0 C58 0 58 0 73 6 C74.33317998 8.76511404 75.21356929 11.07554834 76 14 C76.18232178 14.66749268 76.36464355 15.33498535 76.55249023 16.02270508 C78.30641237 23.5925755 78.37224864 31.15703565 78.37060547 38.8840332 C78.37495955 41.16629829 78.41133023 43.44659317 78.44921875 45.72851562 C78.55074076 58.75256539 76.39764045 70.73935454 70.1875 82.375 C69.66385864 83.37684326 69.66385864 83.37684326 69.12963867 84.39892578 C59.75479281 101.90516759 43.98822858 112.27880307 25.3125 118.3125 C16.66976327 120.76232684 9.02186243 122 0 122 C0 81.74 0 41.48 0 0 Z " fill="#3C176B" transform="translate(235,194)"/>
<path d="M0 0 C12.54 0 25.08 0 38 0 C38 12.54 38 25.08 38 38 C30.12299501 31.24828144 30.12299501 31.24828144 27.35961914 28.48901367 C26.73950455 27.87205124 26.11938995 27.25508881 25.48048401 26.61943054 C24.83852585 25.97544815 24.19656769 25.33146576 23.53515625 24.66796875 C22.85698349 23.99075272 22.17881073 23.31353668 21.48008728 22.61579895 C20.06126167 21.19764898 18.64367853 19.77825494 17.22729492 18.35766602 C15.04785248 16.17281614 12.86305718 13.99341969 10.67773438 11.81445312 C9.2965538 10.43261264 7.91568298 9.05046246 6.53515625 7.66796875 C5.87902847 7.0138652 5.2229007 6.35976166 4.54689026 5.68583679 C0 1.11498108 0 1.11498108 0 0 Z " fill="#3C176C" transform="translate(158,355)"/>
<path d="M0 0 C3.6113766 2.78591909 6.79522157 5.75921283 10 9 C11.18291963 10.18426749 12.36655801 11.36781732 13.55078125 12.55078125 C17.03385417 16.03385417 20.51692708 19.51692708 24 23 C18.24329658 23 13.1882145 18.74783413 9 15 C0 4.84826884 0 4.84826884 0 0 Z " fill="#4C2682" transform="translate(329,155)"/>
</svg>
