<?xml version="1.0" encoding="UTF-8"?>
<svg version="1.1" xmlns="http://www.w3.org/2000/svg" width="64" height="64">
<path d="M0 0 C5.86737104 4.68083404 10.46299423 10.97783144 11.79296875 18.4921875 C12.57111572 30.04958349 12.10601255 39.40284306 4.60546875 48.8046875 C-0.97158079 54.74232214 -7.64657386 58.18513684 -15.74609375 58.73046875 C-27.1690972 59.04233576 -35.80755074 57.60905786 -44.44921875 49.4921875 C-52.10326523 40.78358351 -52.90184616 31.56268272 -52.38183594 20.43652344 C-51.65760597 12.38098234 -47.16729963 5.73070463 -41.20703125 0.4921875 C-28.89887664 -7.86571479 -12.43494177 -8.49537615 0 0 Z " fill="#000101" transform="translate(52.20703125,5.5078125)"/>
<path d="M0 0 C2.66873576 8.4618451 2.15088191 19.85502714 -1.6796875 27.82421875 C-6.31277538 35.45921859 -12.25869697 40.70883819 -20.79296875 43.609375 C-30.20686241 45.27555087 -40.71147837 45.0881494 -49 40 C-51.88915596 37.87339176 -54.62270547 35.69603794 -57 33 C-57 32.34 -57 31.68 -57 31 C-50.46181892 27.85664371 -50.46181892 27.85664371 -48.125 28.58203125 C-44.88459071 29.21939116 -43.10026926 27.80066462 -40.25 26.25 C-28.34593023 20 -28.34593023 20 -23 20 C-24.98 17.36 -26.96 14.72 -29 12 C-22.40956525 8.53910131 -15.78181045 5.39308284 -8.875 2.625 C-8.22394287 2.36251465 -7.57288574 2.1000293 -6.90209961 1.82958984 C-2.25940801 0 -2.25940801 0 0 0 Z " fill="#000101" transform="translate(63,20)"/>
<path d="M0 0 C2.87402727 2.5958956 4.24432948 4.21369298 5 8 C-3.92898482 12.1826806 -12.91898007 16.16064824 -22 20 C-21.175 20.94875 -20.35 21.8975 -19.5 22.875 C-17 25.75 -17 25.75 -17 28 C-17.58491211 28.23187012 -18.16982422 28.46374023 -18.77246094 28.70263672 C-21.43236961 29.75826489 -24.0911916 30.81660382 -26.75 31.875 C-27.67039062 32.23980469 -28.59078125 32.60460938 -29.5390625 32.98046875 C-30.42851562 33.33496094 -31.31796875 33.68945312 -32.234375 34.0546875 C-33.45979004 34.54171143 -33.45979004 34.54171143 -34.70996094 35.03857422 C-36.85934452 35.94094869 -38.92911052 36.93128796 -41 38 C-41 37.34 -41 36.68 -41 36 C-42.051875 36.515625 -43.10375 37.03125 -44.1875 37.5625 C-46.56341496 38.72716419 -47.91399333 39.00363226 -50.58984375 38.890625 C-53 38 -53 38 -54.3984375 35.85546875 C-54.72070312 34.97503906 -55.04296875 34.09460937 -55.375 33.1875 C-55.71273437 32.31480469 -56.05046875 31.44210938 -56.3984375 30.54296875 C-57.06231745 27.73656716 -57.12213822 26.63158579 -56 24 C-53.80688477 22.62792969 -53.80688477 22.62792969 -50.94140625 21.421875 C-49.40323242 20.76445313 -49.40323242 20.76445313 -47.83398438 20.09375 C-46.75439453 19.6503125 -45.67480469 19.206875 -44.5625 18.75 C-43.48677734 18.29109375 -42.41105469 17.8321875 -41.30273438 17.359375 C-33.33921596 14 -33.33921596 14 -31 14 C-31 13.01 -31 12.02 -31 11 C-28.04738074 9.63311253 -25.08709966 8.28370462 -22.125 6.9375 C-21.28324219 6.54755859 -20.44148438 6.15761719 -19.57421875 5.75585938 C-18.76855469 5.39169922 -17.96289062 5.02753906 -17.1328125 4.65234375 C-16.38918457 4.31195068 -15.64555664 3.97155762 -14.87939453 3.62084961 C-13 3 -13 3 -11 4 C-7.11564313 3.42453972 -3.56195852 1.57548165 0 0 Z " fill="#000203" transform="translate(57,12)"/>
<path d="M0 0 C0.66 0.66 1.32 1.32 2 2 C0.31583984 2.58394531 0.31583984 2.58394531 -1.40234375 3.1796875 C-11.31614447 6.81618599 -17.76598217 10.17291492 -24 19 C-24.556875 18.484375 -25.11375 17.96875 -25.6875 17.4375 C-27.88204199 15.73937848 -27.88204199 15.73937848 -30.33349609 16.27880859 C-33.03332335 17.00901274 -35.43038688 17.94769608 -37.9765625 19.1015625 C-38.894375 19.50890625 -39.8121875 19.91625 -40.7578125 20.3359375 C-42.67869487 21.19954946 -44.59795652 22.06677485 -46.515625 22.9375 C-47.43085937 23.34226562 -48.34609375 23.74703125 -49.2890625 24.1640625 C-50.53743896 24.72794678 -50.53743896 24.72794678 -51.81103516 25.30322266 C-54 26 -54 26 -57 25 C-35.68041237 14 -35.68041237 14 -31 14 C-31 13.01 -31 12.02 -31 11 C-28.04738074 9.63311253 -25.08709966 8.28370462 -22.125 6.9375 C-21.28324219 6.54755859 -20.44148438 6.15761719 -19.57421875 5.75585938 C-18.76855469 5.39169922 -17.96289062 5.02753906 -17.1328125 4.65234375 C-16.38918457 4.31195068 -15.64555664 3.97155762 -14.87939453 3.62084961 C-13 3 -13 3 -11 4 C-7.11564313 3.42453972 -3.56195852 1.57548165 0 0 Z " fill="#10B5AD" transform="translate(57,12)"/>
<path d="M0 0 C0 1.32 0 2.64 0 4 C-3.80648736 5.71371692 -7.61510294 7.42258281 -11.42578125 9.12695312 C-12.72227868 9.70764887 -14.01818127 10.28967458 -15.31347656 10.87304688 C-17.17358729 11.71052399 -19.03577294 12.54322138 -20.8984375 13.375 C-22.01911621 13.87773438 -23.13979492 14.38046875 -24.29443359 14.8984375 C-27 16 -27 16 -29 16 C-29.33 14.02 -29.66 12.04 -30 10 C-26.37671893 8.40044097 -22.74721644 6.81606122 -19.11132812 5.24536133 C-17.2686689 4.44560275 -15.4311699 3.63398905 -13.59375 2.82226562 C-12.43359375 2.32275391 -11.2734375 1.82324219 -10.078125 1.30859375 C-9.00981445 0.84251709 -7.94150391 0.37644043 -6.84082031 -0.10375977 C-3.95718622 -1.01350717 -2.76166865 -1.09825853 0 0 Z " fill="#000506" transform="translate(30,28)"/>
<path d="M0 0 C0.33 1.65 0.66 3.3 1 5 C-11.375 10.445 -11.375 10.445 -24 16 C-24 12.25901492 -22.68455564 10.60214219 -20.25 7.8515625 C-14.81672375 3.38042892 -7.00609859 0 0 0 Z " fill="#000506" transform="translate(60,14)"/>
<path d="M0 0 C3.02990095 1.71967351 5.76327296 3.29238306 8 6 C8 6.66 8 7.32 8 8 C4.71338904 9.36667868 1.41999764 10.71618104 -1.875 12.0625 C-2.81214844 12.45244141 -3.74929687 12.84238281 -4.71484375 13.24414062 C-5.61074219 13.60830078 -6.50664062 13.97246094 -7.4296875 14.34765625 C-8.25710449 14.68804932 -9.08452148 15.02844238 -9.93701172 15.37915039 C-12 16 -12 16 -14 15 C-4.58997722 4.44191344 -4.58997722 4.44191344 0 0 Z " fill="#19DCC0" transform="translate(32,32)"/>
<path d="M0 0 C0 0.99 0 1.98 0 3 C-0.76143311 3.31751221 -1.52286621 3.63502441 -2.30737305 3.9621582 C-5.15079337 5.15000381 -7.99273447 6.34130429 -10.83374023 7.53491211 C-12.66083709 8.30131584 -14.48958749 9.0637737 -16.31835938 9.82617188 C-17.47529297 10.31279297 -18.63222656 10.79941406 -19.82421875 11.30078125 C-20.88729248 11.74591064 -21.95036621 12.19104004 -23.0456543 12.6496582 C-26.95278149 14.43548751 -30.43077203 16.62051469 -34 19 C-34.87140625 19.13148437 -35.7428125 19.26296875 -36.640625 19.3984375 C-41.78380541 20.31942562 -46.31276837 22.55179885 -51.07421875 24.6484375 C-53.02732298 25.48597253 -55.01192899 26.24923057 -57 27 C-57.66 26.67 -58.32 26.34 -59 26 C-47.06242212 19.82772962 -34.78570088 14.52957887 -22.37109375 9.3984375 C-17.82348509 7.51194399 -13.28693818 5.5994864 -8.75 3.6875 C-7.89043701 3.325354 -7.03087402 2.96320801 -6.14526367 2.59008789 C-4.09676172 1.72691659 -2.04833838 0.86355938 0 0 Z " fill="#012F38" transform="translate(61,18)"/>
<path d="M0 0 C0.66 0.66 1.32 1.32 2 2 C0.81921875 2.45890625 -0.3615625 2.9178125 -1.578125 3.390625 C-3.1356322 4.00987485 -4.69291207 4.62969668 -6.25 5.25 C-7.02730469 5.55035156 -7.80460937 5.85070312 -8.60546875 6.16015625 C-12.93277517 7.89847592 -15.83653252 9.460675 -19 13 C-19.66 13 -20.32 13 -21 13 C-21 11.68 -21 10.36 -21 9 C-22.32 8.67 -23.64 8.34 -25 8 C-23.04578965 7.13644222 -21.08648653 6.28440066 -19.125 5.4375 C-18.03445312 4.96183594 -16.94390625 4.48617188 -15.8203125 3.99609375 C-14.88960937 3.66738281 -13.95890625 3.33867187 -13 3 C-12.34 3.33 -11.68 3.66 -11 4 C-7.11564313 3.42453972 -3.56195852 1.57548165 0 0 Z " fill="#15B298" transform="translate(57,12)"/>
<path d="M0 0 C0.33 0.66 0.66 1.32 1 2 C0.57847656 2.47050781 0.15695313 2.94101562 -0.27734375 3.42578125 C-0.82519531 4.04839844 -1.37304688 4.67101563 -1.9375 5.3125 C-2.75541016 6.23482422 -2.75541016 6.23482422 -3.58984375 7.17578125 C-5.20081559 9.05241958 -5.20081559 9.05241958 -6 12 C-9.0625 13.1875 -9.0625 13.1875 -12 14 C-8.72905967 8.54843278 -4.58146674 4.38130557 0 0 Z " fill="#0DD1D8" transform="translate(30,34)"/>
<path d="M0 0 C-1.75 4.875 -1.75 4.875 -4 6 C-4 5.34 -4 4.68 -4 4 C-5.0725 4.515625 -6.145 5.03125 -7.25 5.5625 C-10.25254899 7.00603317 -11.83246499 7.05818094 -15 6 C-12.87717331 4.99539469 -10.75166979 3.99644398 -8.625 3 C-7.44164062 2.443125 -6.25828125 1.88625 -5.0390625 1.3125 C-2 0 -2 0 0 0 Z " fill="#001E25" transform="translate(20,44)"/>
</svg>
