<?xml version="1.0" encoding="UTF-8"?>
<svg version="1.1" xmlns="http://www.w3.org/2000/svg" width="256" height="256">
<path d="M0 0 C1.01855072 0.00081573 1.01855072 0.00081573 2.05767822 0.00164795 C13.4157552 0.04331857 24.03543786 1.06018381 34.9375 4.375 C35.64970703 4.58398926 36.36191406 4.79297852 37.09570312 5.00830078 C58.01285157 11.29191761 75.09371685 22.47628462 90.9375 37.375 C91.52789062 37.9009375 92.11828125 38.426875 92.7265625 38.96875 C107.89638124 53.0601456 118.59956812 73.58608903 123.9375 93.375 C124.13069824 94.02710449 124.32389648 94.67920898 124.52294922 95.35107422 C133.92683421 127.60064224 127.78006466 162.83841325 112.10791016 191.9519043 C106.40413867 202.13682708 98.90604172 210.90099109 90.9375 219.375 C90.4115625 219.96539062 89.885625 220.55578125 89.34375 221.1640625 C75.2523544 236.33388124 54.72641097 247.03706812 34.9375 252.375 C34.28539551 252.56819824 33.63329102 252.76139648 32.96142578 252.96044922 C0.71185776 262.36433421 -34.52591325 256.21756466 -63.6394043 240.54541016 C-73.80049238 234.8549866 -82.65912729 227.38969997 -91.0625 219.375 C-91.60382568 218.86356445 -92.14515137 218.35212891 -92.70288086 217.82519531 C-97.00164606 213.66605014 -100.59092361 209.28334115 -104 204.375 C-104.51651123 203.6315332 -105.03302246 202.88806641 -105.56518555 202.12207031 C-114.75039068 188.68114406 -120.57926806 175.03192159 -125.0625 159.375 C-125.60777344 157.47234375 -125.60777344 157.47234375 -126.1640625 155.53125 C-133.55306722 123.76543533 -126.69910333 88.82254486 -110.11279297 61.05664062 C-91.16681637 30.72193891 -61.61712322 10.52313539 -27.0625 2.375 C-18.04164506 0.42562895 -9.21278176 -0.0125282 0 0 Z " fill="#000001" transform="translate(128.0625,-0.375)"/>
<path d="M0 0 C16.52826491 6.99272746 28.17215457 30.29417277 35 46 C36.55461102 50.28392812 37.83120318 54.59662592 39 59 C39.28746094 60.04414062 39.57492188 61.08828125 39.87109375 62.1640625 C47.97104147 92.78108976 42.29475578 126.05485297 26.53271484 153.2409668 C9.72404224 180.91575008 -16.95406153 200.64169559 -48.38037109 208.60302734 C-60.92246111 211.58644677 -72.97801674 212.60430077 -85.84863281 212.08544922 C-87.5726181 212.016975 -89.29816346 211.9882595 -91.0234375 211.97265625 C-112.55693807 211.12354345 -137.76091477 199.97220785 -154 186 C-154 185.34 -154 184.68 -154 184 C-153.2056958 183.67539795 -152.4113916 183.3507959 -151.59301758 183.01635742 C-133.74849851 175.71558038 -115.9460555 168.32006593 -98.1875 160.8125 C-97.25824707 160.41979919 -96.32899414 160.02709839 -95.37158203 159.62249756 C-85.38039066 155.39957869 -75.39291967 151.16795663 -65.4092865 146.92720032 C-61.22048907 145.14857573 -57.03056634 143.37261198 -52.84048462 141.59701538 C-50.82946651 140.74391207 -48.81902412 139.88945026 -46.80917358 139.03359985 C-44.0264635 137.84864671 -41.24196265 136.66800222 -38.45703125 135.48828125 C-37.62595856 135.13302368 -36.79488586 134.77776611 -35.93862915 134.41174316 C-30.22771308 132 -30.22771308 132 -28 132 C-32.85921897 126.27056263 -37.988747 120.93610703 -43.375 115.703125 C-44.95240466 114.15293548 -46.52921092 112.60213687 -48.10546875 111.05078125 C-50.5666562 108.6330934 -53.03139085 106.21951424 -55.50634766 103.81591797 C-57.91142201 101.47708607 -60.3005699 99.12295201 -62.6875 96.765625 C-63.81067627 95.68586395 -63.81067627 95.68586395 -64.95654297 94.58428955 C-65.63475098 93.90968689 -66.31295898 93.23508423 -67.01171875 92.54003906 C-67.61459717 91.95127991 -68.21747559 91.36252075 -68.83862305 90.75592041 C-70 89 -70 89 -69.81689453 86.96380615 C-68.4977888 83.79268938 -66.33089648 81.27105955 -64.1875 78.625 C-63.70047607 78.01430664 -63.21345215 77.40361328 -62.71166992 76.77441406 C-58.67532219 71.74940236 -54.49618505 66.85106173 -50.27880859 61.9777832 C-46.72549203 57.86893508 -43.29187345 53.6831127 -39.921875 49.421875 C-36.33623264 44.90338259 -32.65876306 40.45931292 -29 36 C-27.49971683 34.16689838 -25.99971592 32.33356573 -24.5 30.5 C-21.5 26.83333333 -18.5 23.16666667 -15.5 19.5 C-14.76652344 18.6028125 -14.03304687 17.705625 -13.27734375 16.78125 C-11.68899886 14.84145315 -10.09761327 12.90414382 -8.50390625 10.96875 C-7.69824219 9.9890625 -6.89257812 9.009375 -6.0625 8 C-4.96615234 6.6696875 -4.96615234 6.6696875 -3.84765625 5.3125 C-1.89854558 2.94099979 -1.89854558 2.94099979 0 0 Z " fill="#000001" transform="translate(206,37)"/>
<path d="M0 0 C1.01855072 0.00081573 1.01855072 0.00081573 2.05767822 0.00164795 C13.4157552 0.04331857 24.03543786 1.06018381 34.9375 4.375 C35.64970703 4.58398926 36.36191406 4.79297852 37.09570312 5.00830078 C58.01285157 11.29191761 75.09371685 22.47628462 90.9375 37.375 C91.52789062 37.9009375 92.11828125 38.426875 92.7265625 38.96875 C107.89638124 53.0601456 118.59956812 73.58608903 123.9375 93.375 C124.13069824 94.02710449 124.32389648 94.67920898 124.52294922 95.35107422 C133.92683421 127.60064224 127.78006466 162.83841325 112.10791016 191.9519043 C106.40413867 202.13682708 98.90604172 210.90099109 90.9375 219.375 C90.4115625 219.96539062 89.885625 220.55578125 89.34375 221.1640625 C75.2523544 236.33388124 54.72641097 247.03706812 34.9375 252.375 C34.28539551 252.56819824 33.63329102 252.76139648 32.96142578 252.96044922 C0.71185776 262.36433421 -34.52591325 256.21756466 -63.6394043 240.54541016 C-73.80049238 234.8549866 -82.65912729 227.38969997 -91.0625 219.375 C-91.60382568 218.86356445 -92.14515137 218.35212891 -92.70288086 217.82519531 C-97.00164606 213.66605014 -100.59092361 209.28334115 -104 204.375 C-104.51651123 203.6315332 -105.03302246 202.88806641 -105.56518555 202.12207031 C-114.75039068 188.68114406 -120.57926806 175.03192159 -125.0625 159.375 C-125.60777344 157.47234375 -125.60777344 157.47234375 -126.1640625 155.53125 C-133.55306722 123.76543533 -126.69910333 88.82254486 -110.11279297 61.05664062 C-91.16681637 30.72193891 -61.61712322 10.52313539 -27.0625 2.375 C-18.04164506 0.42562895 -9.21278176 -0.0125282 0 0 Z M-94.0625 51.375 C-115.56787953 77.1588182 -123.13877286 109.47783258 -120.77734375 142.34375 C-117.4279093 170.70012709 -103.44255301 195.86638969 -84.0625 216.375 C-83.25425781 217.25478516 -83.25425781 217.25478516 -82.4296875 218.15234375 C-81.11972146 219.59720269 -81.11972146 219.59720269 -79.0625 219.375 C-77.50980672 217.85934599 -77.50980672 217.85934599 -75.90625 215.875 C-71.6583144 210.87949809 -67.17648598 206.13450685 -62.66796875 201.375 C-58.95765423 197.44191298 -55.35342756 193.43995519 -51.80859375 189.35742188 C-48.8872414 186.04067396 -45.84860044 182.83641333 -42.8125 179.625 C-36.50541919 172.9254786 -30.26437694 166.17195958 -24.0625 159.375 C-22.25059796 157.39528069 -20.43821156 155.41601859 -18.625 153.4375 C-18.17640625 152.94765625 -17.7278125 152.4578125 -17.265625 151.953125 C-14.83374108 149.29953087 -12.39549247 146.65205695 -9.94921875 144.01171875 C-4.56905286 138.20384092 0.78125101 132.38457189 5.9375 126.375 C9.23893741 127.81732831 11.41812758 129.60739693 13.95581055 132.15039062 C14.73309006 132.92459351 15.51036957 133.69879639 16.311203 134.49645996 C17.1404982 135.33294067 17.9697934 136.16942139 18.82421875 137.03125 C19.68183304 137.88932251 20.53944733 138.74739502 21.42304993 139.63146973 C23.23337994 141.44481924 25.04128046 143.26059699 26.84692383 145.07861328 C29.61942636 147.86938963 32.39986481 150.65206378 35.18164062 153.43359375 C36.93797311 155.19484083 38.6938483 156.95654409 40.44921875 158.71875 C41.28458664 159.55523071 42.11995453 160.39171143 42.9806366 161.25354004 C43.74845963 162.02774292 44.51628265 162.8019458 45.30737305 163.59960938 C45.98591843 164.28196655 46.66446381 164.96432373 47.36357117 165.6673584 C48.9375 167.375 48.9375 167.375 49.9375 169.375 C49.10422684 169.64104286 49.10422684 169.64104286 48.25411987 169.91246033 C42.99106387 171.62486099 37.89852461 173.55798456 32.8203125 175.75390625 C31.68360107 176.23991806 31.68360107 176.23991806 30.52392578 176.73574829 C28.88984929 177.43468865 27.25642368 178.13515235 25.62359619 178.83700562 C21.16920988 180.75104037 16.70929316 182.65211956 12.25 184.5546875 C11.3220462 184.95090805 10.39409241 185.3471286 9.4380188 185.75535583 C-0.66907374 190.06756069 -10.80020121 194.32187662 -20.9375 198.5625 C-21.8268222 198.93462616 -22.71614441 199.30675232 -23.63241577 199.69015503 C-41.08046956 206.98801406 -58.56252995 214.20262264 -76.0625 221.375 C-76.0625 222.035 -76.0625 222.695 -76.0625 223.375 C-73.92980204 225.02355101 -71.8116389 226.52405459 -69.5625 228 C-68.88977051 228.4429541 -68.21704102 228.8859082 -67.52392578 229.34228516 C-56.34082795 236.55526679 -44.94775073 241.94115569 -32.0625 245.375 C-31.11761719 245.66117188 -30.17273438 245.94734375 -29.19921875 246.2421875 C-22.79544814 248.14429758 -16.73273512 249.1125139 -10.0625 249.375 C-9.33804688 249.40754883 -8.61359375 249.44009766 -7.8671875 249.47363281 C26.08000863 250.82442558 57.73172911 239.81070253 83.125 217.125 C106.53341667 195.41374187 119.8629336 165.02929564 121.3125 133.2734375 C121.99026156 102.55945653 112.41610513 70.95811189 90.90625 48.42578125 C89.93171875 47.41064453 89.93171875 47.41064453 88.9375 46.375 C87.988049 45.2390497 87.04847853 44.09466364 86.125 42.9375 C84.18018939 40.65929329 82.47460654 38.94975579 79.9375 37.375 C79.2775 37.375 78.6175 37.375 77.9375 37.375 C76.23577733 39.38169089 74.64199 41.39989907 73.0625 43.5 C69.09518486 48.66963222 65.02108089 53.70321738 60.75 58.625 C56.68116681 63.32329457 52.71555915 68.07712355 48.859375 72.953125 C45.27373264 77.47161741 41.59626306 81.91568708 37.9375 86.375 C36.43721683 88.20810162 34.93721592 90.04143427 33.4375 91.875 C30.4375 95.54166667 27.4375 99.20833333 24.4375 102.875 C23.33535156 104.22271484 23.33535156 104.22271484 22.2109375 105.59765625 C20.63449624 107.5235149 19.05624508 109.4478929 17.4765625 111.37109375 C16.67992187 112.34175781 15.88328125 113.31242187 15.0625 114.3125 C14.34320313 115.18777344 13.62390625 116.06304687 12.8828125 116.96484375 C11.1844931 119.06898646 9.54269265 121.1994087 7.9375 123.375 C4.19688188 121.81564367 1.82284364 119.50445322 -1.01953125 116.6484375 C-1.48558273 116.1819278 -1.95163422 115.71541809 -2.43180847 115.23477173 C-3.41663345 114.2469326 -4.39903381 113.25667105 -5.37915039 112.26416016 C-6.85458043 110.77066953 -8.3376574 109.2851425 -9.82226562 107.80078125 C-14.56659754 103.03824544 -19.17803787 98.20847697 -23.55395508 93.10400391 C-25.76084601 90.57459759 -28.10997366 88.23228625 -30.5 85.875 C-31.36496094 85.0190625 -32.22992188 84.163125 -33.12109375 83.28125 C-33.76175781 82.6521875 -34.40242188 82.023125 -35.0625 81.375 C-26.74243937 76.92482681 -18.0741489 73.3884898 -9.35440063 69.81704712 C-4.82386896 67.96084623 -0.29879271 66.09143404 4.2265625 64.22265625 C5.17309189 63.83202499 6.11962128 63.44139374 7.09483337 63.03892517 C18.12911991 58.47930407 29.12822247 53.83669488 40.125 49.1875 C41.54215805 48.58878082 41.54215805 48.58878082 42.98794556 47.97796631 C53.65038703 43.47282734 64.30447938 38.94919249 74.9375 34.375 C56.58552339 15.73347591 27.42213185 7.58815347 1.89672852 7.08251953 C-36.1539768 6.81374894 -68.9286729 23.15338775 -94.0625 51.375 Z " fill="#22D3F4" transform="translate(128.0625,-0.375)"/>
<path d="M0 0 C2.84241762 1.29334471 4.90775233 2.65590396 7.11621094 4.85742188 C7.69651062 5.43141724 8.2768103 6.0054126 8.87469482 6.59680176 C9.79523651 7.52341614 9.79523651 7.52341614 10.734375 8.46875 C11.37240051 9.10486206 12.01042603 9.74097412 12.66778564 10.3963623 C14.01161574 11.73883387 15.35293329 13.08382461 16.69189453 14.43115234 C18.74942465 16.49942165 20.81744049 18.55677328 22.88671875 20.61328125 C24.19074625 21.91862971 25.49415356 23.2245981 26.796875 24.53125 C27.41866638 25.14899292 28.04045776 25.76673584 28.68109131 26.40319824 C33 30.77006927 33 30.77006927 33 33 C27.31239858 35.40256879 21.62468083 37.80486193 15.93685913 40.20690918 C13.89649606 41.06859962 11.85615181 41.93033461 9.81582642 42.79211426 C-1.08190857 47.39486824 -11.98073719 51.99493956 -22.88671875 56.578125 C-23.73532471 56.93487305 -24.58393066 57.29162109 -25.45825195 57.65917969 C-29.42551651 59.32693224 -33.39322751 60.99360446 -37.36181641 62.65820312 C-38.81026205 63.26683024 -40.25866797 63.87555191 -41.70703125 64.484375 C-42.39466553 64.77256104 -43.0822998 65.06074707 -43.79077148 65.35766602 C-47.39807552 66.87628328 -50.98400372 68.43257418 -54.55224609 70.04101562 C-55.2899675 70.3716803 -56.0276889 70.70234497 -56.7877655 71.04302979 C-58.19854035 71.67784012 -59.60635699 72.31927802 -61.01069641 72.96820068 C-62.64860952 73.70429584 -64.32213559 74.3601825 -66 75 C-66.66 74.67 -67.32 74.34 -68 74 C-67.50371094 73.5153125 -67.00742188 73.030625 -66.49609375 72.53125 C-63.17723052 69.25647034 -59.91471761 65.97476729 -56.875 62.4375 C-53.3998643 58.39645917 -49.77006644 54.51198073 -46.125 50.625 C-42.23108445 46.4715578 -38.35188227 42.31207291 -34.5625 38.0625 C-30.65119069 33.68503837 -26.64570755 29.40162528 -22.625 25.125 C-18.00136363 20.20530287 -13.3834108 15.28129319 -8.8125 10.3125 C-7.97332031 9.40113281 -7.13414063 8.48976562 -6.26953125 7.55078125 C-4.08728936 5.09810662 -2.02484355 2.58342108 0 0 Z " fill="#000509" transform="translate(134,134)"/>
<path d="M0 0 C-0.56545532 0.68606323 -0.56545532 0.68606323 -1.14233398 1.38598633 C-8.44325301 10.24511642 -15.73720661 19.10957495 -23 28 C-25.2562244 30.75804664 -27.51288017 33.51573997 -29.76953125 36.2734375 C-31.20499935 38.02817784 -32.63993796 39.78335155 -34.07421875 41.5390625 C-35.51153804 43.29785246 -36.95175378 45.05427849 -38.39453125 46.80859375 C-40.47617721 49.34614774 -42.52618573 51.90791518 -44.57421875 54.47265625 C-45.84100889 56.04438122 -47.10793606 57.61599575 -48.375 59.1875 C-48.98239014 59.95529785 -49.58978027 60.7230957 -50.21557617 61.51416016 C-50.79154541 62.22491699 -51.36751465 62.93567383 -51.9609375 63.66796875 C-52.47446777 64.31016357 -52.98799805 64.9523584 -53.51708984 65.61401367 C-55 67 -55 67 -58 67 C-59.49967957 65.87454224 -59.49967957 65.87454224 -61.09448242 64.27783203 C-61.69487839 63.68366486 -62.29527435 63.08949768 -62.91386414 62.47732544 C-63.55459366 61.82738617 -64.19532318 61.1774469 -64.85546875 60.5078125 C-65.51710526 59.8466745 -66.17874176 59.1855365 -66.86042786 58.50436401 C-68.25845711 57.10399238 -69.65278955 55.6999219 -71.04370117 54.29248047 C-73.18055347 52.13202327 -75.33042081 49.98520056 -77.48242188 47.83984375 C-78.83673208 46.47995753 -80.19027429 45.11930593 -81.54296875 43.7578125 C-82.51317207 42.78897629 -82.51317207 42.78897629 -83.50297546 41.80056763 C-84.09391495 41.20009613 -84.68485443 40.59962463 -85.29370117 39.98095703 C-85.81759933 39.45245148 -86.3414975 38.92394592 -86.88127136 38.37942505 C-88 37 -88 37 -88 35 C-87.17910889 34.66266846 -86.35821777 34.32533691 -85.51245117 33.9777832 C-82.41233624 32.70270251 -79.3129883 31.42578996 -76.21411133 30.14770508 C-74.88302528 29.5991392 -73.55165364 29.05126569 -72.2199707 28.50415039 C-62.89339548 24.67233651 -62.89339548 24.67233651 -53.6796875 20.578125 C-46.64717967 17.33911857 -39.48899552 14.40066081 -32.33862305 11.43383789 C-29.93783267 10.43763804 -27.53816515 9.43877265 -25.13867188 8.43945312 C-21.40691639 6.88617647 -17.67134678 5.34235122 -13.93426514 3.80194092 C-12.19347978 3.08021618 -10.45796004 2.34582212 -8.72314453 1.60986328 C-7.8257959 1.23458496 -6.92844727 0.85930664 -6.00390625 0.47265625 C-5.26084229 0.1569165 -4.51777832 -0.15882324 -3.75219727 -0.48413086 C-2 -1 -2 -1 0 0 Z " fill="#001B31" transform="translate(191,47)"/>
<path d="M0 0 C0.66 0.33 1.32 0.66 2 1 C2.33 1.99 2.66 2.98 3 4 C6.57242864 6.62603346 9.81361891 8.1140751 14.25 7.6875 C15.61125 7.3471875 15.61125 7.3471875 17 7 C19.375 7.4375 19.375 7.4375 21 8 C21.495 10.97 21.495 10.97 22 14 C21.34 14 20.68 14 20 14 C19.855625 14.598125 19.71125 15.19625 19.5625 15.8125 C19.1127561 17.56150404 18.57107659 19.28677023 18 21 C18.00861004 24.62052368 18.13085826 28.22946031 18.2578125 31.84765625 C18.17273438 32.88792969 18.08765625 33.92820313 18 35 C17.01 35.66 16.02 36.32 15 37 C10.57816365 32.62872972 6.16407358 28.24975043 1.75537109 23.86523438 C0.25357961 22.37352203 -1.24999903 20.88360672 -2.75537109 19.39550781 C-4.91451966 17.26052352 -7.06723153 15.11923229 -9.21875 12.9765625 C-9.89683716 12.30879791 -10.57492432 11.64103333 -11.27355957 10.95303345 C-11.89420288 10.3325412 -12.51484619 9.71204895 -13.15429688 9.07275391 C-13.70500854 8.52648346 -14.25572021 7.98021301 -14.82312012 7.41738892 C-16 6 -16 6 -16 4 C-10.33326602 1.27996769 -6.21838436 -0.07279479 0 2 C0 1.34 0 0.68 0 0 Z " fill="#000D18" transform="translate(119,78)"/>
<path d="M0 0 C4.66666667 4.66666667 9.33333333 9.33333333 14 14 C12.21875 18.875 12.21875 18.875 10.25 20 C9.5075 20.33 8.765 20.66 8 21 C6.96244126 21.8551009 5.94267964 22.73206126 4.9375 23.625 C2 26 2 26 -1 26 C-2.6875 24.5 -2.6875 24.5 -4 23 C-6.475 24.485 -6.475 24.485 -9 26 C-9 25.34 -9 24.68 -9 24 C-10.65 25.32 -12.3 26.64 -14 28 C-14 26.35 -14 24.7 -14 23 C-14.9075 23.474375 -15.815 23.94875 -16.75 24.4375 C-19.29534425 25.6612232 -21.29664942 26.39468454 -24 27 C-18.96788536 21.03167798 -13.67867313 15.35532361 -8.30273438 9.69726562 C-7.66271484 9.01986328 -7.02269531 8.34246094 -6.36328125 7.64453125 C-5.78876221 7.03971924 -5.21424316 6.43490723 -4.62231445 5.81176758 C-2.95711087 3.95210229 -1.46827993 2.01746053 0 0 Z " fill="#001B32" transform="translate(134,134)"/>
<path d="M0 0 C0.82757813 0.55300781 0.82757813 0.55300781 1.671875 1.1171875 C2.331875 0.7871875 2.991875 0.4571875 3.671875 0.1171875 C3.671875 1.7671875 3.671875 3.4171875 3.671875 5.1171875 C3.341875 4.4571875 3.011875 3.7971875 2.671875 3.1171875 C2.011875 3.1171875 1.351875 3.1171875 0.671875 3.1171875 C0.011875 4.4371875 -0.648125 5.7571875 -1.328125 7.1171875 C-1.988125 7.1171875 -2.648125 7.1171875 -3.328125 7.1171875 C-3.328125 9.7571875 -3.328125 12.3971875 -3.328125 15.1171875 C-1.348125 15.4471875 0.631875 15.7771875 2.671875 16.1171875 C3.001875 15.1271875 3.331875 14.1371875 3.671875 13.1171875 C4.661875 12.7871875 5.651875 12.4571875 6.671875 12.1171875 C7.001875 11.4571875 7.331875 10.7971875 7.671875 10.1171875 C8.249375 10.6121875 8.826875 11.1071875 9.421875 11.6171875 C11.77588129 13.48698763 11.77588129 13.48698763 15.671875 13.1171875 C16.166875 15.0971875 16.166875 15.0971875 16.671875 17.1171875 C14.484375 18.6796875 14.484375 18.6796875 11.671875 20.1171875 C10.00366177 19.79168248 8.33687943 19.45872687 6.671875 19.1171875 C4.36683456 20.44872016 4.36683456 20.44872016 2.671875 22.1171875 C2.671875 21.4571875 2.671875 20.7971875 2.671875 20.1171875 C2.011875 20.1171875 1.351875 20.1171875 0.671875 20.1171875 C0.341875 20.7771875 0.011875 21.4371875 -0.328125 22.1171875 C-0.988125 20.4671875 -1.648125 18.8171875 -2.328125 17.1171875 C-2.988125 17.1171875 -3.648125 17.1171875 -4.328125 17.1171875 C-4.658125 17.7771875 -4.988125 18.4371875 -5.328125 19.1171875 C-9.26658654 15.79411058 -9.26658654 15.79411058 -9.578125 12.3671875 C-9.495625 11.6246875 -9.413125 10.8821875 -9.328125 10.1171875 C-10.318125 10.4471875 -11.308125 10.7771875 -12.328125 11.1171875 C-12.658125 9.4671875 -12.988125 7.8171875 -13.328125 6.1171875 C-14.318125 5.7871875 -15.308125 5.4571875 -16.328125 5.1171875 C-14.08561622 4.05589324 -11.83663411 3.01837517 -9.578125 1.9921875 C-8.94390625 1.68925781 -8.3096875 1.38632813 -7.65625 1.07421875 C-2.84743206 -1.07973095 -2.84743206 -1.07973095 0 0 Z " fill="#002441" transform="translate(145.328125,65.8828125)"/>
<path d="M0 0 C3.21524305 1.40844718 5.32183868 3.10344786 7.75 5.625 C8.67039063 6.57246094 8.67039063 6.57246094 9.609375 7.5390625 C10.06828125 8.02117187 10.5271875 8.50328125 11 9 C9.51376147 13.70642202 9.51376147 13.70642202 7.25 15 C6.5075 15.33 5.765 15.66 5 16 C3.96244126 16.8551009 2.94267964 17.73206126 1.9375 18.625 C-1 21 -1 21 -4 21 C-7 17.66666667 -7 17.66666667 -7 15 C-6.34 15 -5.68 15 -5 15 C-4.34 15.66 -3.68 16.32 -3 17 C-2.01 17 -1.02 17 0 17 C0 14.36 0 11.72 0 9 C-1.32 8.67 -2.64 8.34 -4 8 C-3.6875 5.125 -3.6875 5.125 -3 2 C-2.01 1.34 -1.02 0.68 0 0 Z " fill="#001120" transform="translate(137,139)"/>
<path d="M0 0 C-2.08945691 2.67849409 -4.19886945 5.34055413 -6.3125 8 C-6.90740234 8.763125 -7.50230469 9.52625 -8.11523438 10.3125 C-8.98051758 11.3953125 -8.98051758 11.3953125 -9.86328125 12.5 C-10.39219971 13.1703125 -10.92111816 13.840625 -11.46606445 14.53125 C-13 16 -13 16 -16 16 C-16 14.68 -16 13.36 -16 12 C-17.32 11.67 -18.64 11.34 -20 11 C-20 10.34 -20 9.68 -20 9 C-20.556875 9.33 -21.11375 9.66 -21.6875 10 C-24.30284522 11.1309601 -26.1806646 11.15662974 -29 11 C-24.31909457 7.87939638 -19.1150742 5.97908793 -13.9375 3.8125 C-12.82310547 3.33619141 -11.70871094 2.85988281 -10.56054688 2.36914062 C-9.49771484 1.92376953 -8.43488281 1.47839844 -7.33984375 1.01953125 C-6.36394287 0.60807861 -5.38804199 0.19662598 -4.38256836 -0.22729492 C-2 -1 -2 -1 0 0 Z " fill="#042136" transform="translate(191,47)"/>
<path d="M0 0 C1.11375 0.7425 1.11375 0.7425 2.25 1.5 C5.06318188 3.31923475 5.06318188 3.31923475 9 3 C9.33 4.32 9.66 5.64 10 7 C7.8125 8.5625 7.8125 8.5625 5 10 C3.33178677 9.67449498 1.66500443 9.34153937 0 9 C-2.30504044 10.33153266 -2.30504044 10.33153266 -4 12 C-4 11.34 -4 10.68 -4 10 C-4.66 10 -5.32 10 -6 10 C-6.33 10.66 -6.66 11.32 -7 12 C-7.66 10.35 -8.32 8.7 -9 7 C-9.66 7 -10.32 7 -11 7 C-11.33 7.66 -11.66 8.32 -12 9 C-12 7.35 -12 5.7 -12 4 C-11.34 3.67 -10.68 3.34 -10 3 C-10 3.66 -10 4.32 -10 5 C-7.03 5.495 -7.03 5.495 -4 6 C-3.67 5.01 -3.34 4.02 -3 3 C-2.01 2.67 -1.02 2.34 0 2 C0 1.34 0 0.68 0 0 Z " fill="#002B4B" transform="translate(152,76)"/>
<path d="M0 0 C0.33 0.66 0.66 1.32 1 2 C2.98 1.67 4.96 1.34 7 1 C5.5337009 5.83878704 2.86599692 9.76233666 -1 13 C-4.875 13.9375 -4.875 13.9375 -8 14 C-9.53445094 10.93109813 -8.54984289 8.29905734 -8 5 C-7.34 5 -6.68 5 -6 5 C-6 4.34 -6 3.68 -6 3 C-4.02 2.67 -2.04 2.34 0 2 C0 1.34 0 0.68 0 0 Z " fill="#002848" transform="translate(152,83)"/>
<path d="M0 0 C2 0 4 0 6 0 C6.56638908 4.81430721 4.82561627 7.20307814 2 11 C3.65 11.33 5.3 11.66 7 12 C5 14 5 14 2.625 14.4375 C0 14 0 14 -2.25 11.875 C-4.11609306 8.80927569 -4.67009575 6.54647066 -5 3 C-2.525 3.495 -2.525 3.495 0 4 C0 2.68 0 1.36 0 0 Z " fill="#001F38" transform="translate(156,66)"/>
<path d="M0 0 C1.32 1.65 2.64 3.3 4 5 C2.02 5.99 2.02 5.99 0 7 C0 10.63 0 14.26 0 18 C-0.66 18.33 -1.32 18.66 -2 19 C-2 18.34 -2 17.68 -2 17 C-2.66 17 -3.32 17 -4 17 C-4.33 17.66 -4.66 18.32 -5 19 C-6.4819302 10.43773665 -4.71882749 7.07824124 0 0 Z " fill="#002340" transform="translate(134,134)"/>
<path d="M0 0 C1.375 3.125 1.375 3.125 2 6 C1.01 6.66 0.02 7.32 -1 8 C-1 7.34 -1 6.68 -1 6 C-5.455 6.495 -5.455 6.495 -10 7 C-10.12375 6.030625 -10.2475 5.06125 -10.375 4.0625 C-10.58125 3.051875 -10.7875 2.04125 -11 1 C-11.66 0.67 -12.32 0.34 -13 0 C-7.99247155 -1.80271024 -4.78774039 -2.67222719 0 0 Z " fill="#001223" transform="translate(175,58)"/>
<path d="M0 0 C0.99 0.33 1.98 0.66 3 1 C2.54149658 1.48355957 2.08299316 1.96711914 1.6105957 2.46533203 C-0.49062166 4.68347518 -2.5890763 6.90421391 -4.6875 9.125 C-5.7693457 10.26582031 -5.7693457 10.26582031 -6.87304688 11.4296875 C-9.96010787 14.69999869 -13.0213532 17.95996405 -15.875 21.4375 C-17.77837288 23.73274377 -19.53201452 25.35467635 -22 27 C-22.66 26.67 -23.32 26.34 -24 26 C-23.43152344 25.443125 -22.86304688 24.88625 -22.27734375 24.3125 C-17.94033522 20.02617438 -13.7463589 15.68824886 -9.7734375 11.0625 C-7.72897617 8.68480048 -5.64807236 6.34169529 -3.5625 4 C-2.88316406 3.236875 -2.20382813 2.47375 -1.50390625 1.6875 C-1.00761719 1.130625 -0.51132813 0.57375 0 0 Z " fill="#0BBDEE" transform="translate(75,189)"/>
<path d="M0 0 C0.99 0.33 1.98 0.66 3 1 C2.38801624 4.43950364 1.07941153 6.51564485 -1.0625 9.25 C-1.61035156 9.95640625 -2.15820312 10.6628125 -2.72265625 11.390625 C-3.14417969 11.92171875 -3.56570312 12.4528125 -4 13 C-4.66 12.67 -5.32 12.34 -6 12 C-6 8.37 -6 4.74 -6 1 C-4.35 1 -2.7 1 -1 1 C-0.67 0.67 -0.34 0.34 0 0 Z " fill="#00182A" transform="translate(142,99)"/>
<path d="M0 0 C0.33 0.99 0.66 1.98 1 3 C-0.21484375 4.82421875 -0.21484375 4.82421875 -1.9375 6.6875 C-2.50339844 7.31011719 -3.06929687 7.93273437 -3.65234375 8.57421875 C-4.09707031 9.04472656 -4.54179687 9.51523438 -5 10 C-7.5 8.8125 -7.5 8.8125 -10 7 C-10.3125 4.3125 -10.3125 4.3125 -10 2 C-9.67 2.66 -9.34 3.32 -9 4 C-8.34 4 -7.68 4 -7 4 C-7 3.01 -7 2.02 -7 1 C-4.53721199 -0.231394 -2.7204945 -0.07159196 0 0 Z " fill="#011B32" transform="translate(174,64)"/>
<path d="M0 0 C0.33 0.66 0.66 1.32 1 2 C2.98 1.67 4.96 1.34 7 1 C5.63312778 4.98671063 3.84804907 7.88494633 1 11 C0.34 11 -0.32 11 -1 11 C-1.66 8.36 -2.32 5.72 -3 3 C-2.01 2.67 -1.02 2.34 0 2 C0 1.34 0 0.68 0 0 Z " fill="#011C33" transform="translate(152,83)"/>
<path d="M0 0 C0.99 0.33 1.98 0.66 3 1 C0.76353074 3.49166989 -1.49132602 5.96595496 -3.75 8.4375 C-4.38421875 9.14455078 -5.0184375 9.85160156 -5.671875 10.58007812 C-6.290625 11.25361328 -6.909375 11.92714844 -7.546875 12.62109375 C-8.11245117 13.2442749 -8.67802734 13.86745605 -9.26074219 14.50952148 C-11.17813923 16.15265862 -12.53306095 16.60065833 -15 17 C-10.10995345 11.23225279 -5.07515796 5.60523001 0 0 Z " fill="#13C4EA" transform="translate(98,164)"/>
<path d="M0 0 C2.20842803 3.31264204 2.19725756 3.83451396 1.6875 7.5625 C1.58824219 8.34753906 1.48898438 9.13257812 1.38671875 9.94140625 C1 12 1 12 0 14 C-3.2910841 10.39042389 -4.54663921 7.87362847 -5 3 C-2.525 3.495 -2.525 3.495 0 4 C0 2.68 0 1.36 0 0 Z " fill="#002644" transform="translate(156,66)"/>
<path d="M0 0 C-0.33 1.65 -0.66 3.3 -1 5 C-1.66 5 -2.32 5 -3 5 C-3.33 5.66 -3.66 6.32 -4 7 C-4.66 7 -5.32 7 -6 7 C-6 6.34 -6 5.68 -6 5 C-7.98 5 -9.96 5 -12 5 C-12 4.34 -12 3.68 -12 3 C-4.71428571 -0.42857143 -4.71428571 -0.42857143 0 0 Z " fill="#021521" transform="translate(160,60)"/>
<path d="M0 0 C0 3 0 3 -2 6 C-2.66 6 -3.32 6 -4 6 C-4.226875 6.763125 -4.45375 7.52625 -4.6875 8.3125 C-6.28907779 11.59192118 -7.69008228 12.54686539 -11 14 C-11.99 13.67 -12.98 13.34 -14 13 C-12.04468135 11.0177733 -10.08594334 9.03914884 -8.125 7.0625 C-7.56941406 6.49853516 -7.01382813 5.93457031 -6.44140625 5.35351562 C-2.2265625 1.11328125 -2.2265625 1.11328125 0 0 Z " fill="#011422" transform="translate(124,147)"/>
<path d="M0 0 C0.09152344 0.58265625 0.18304688 1.1653125 0.27734375 1.765625 C1.17201069 4.53183847 2.46164769 5.76373964 4.5625 7.75 C5.20316406 8.36359375 5.84382813 8.9771875 6.50390625 9.609375 C6.99761719 10.06828125 7.49132812 10.5271875 8 11 C7.67 11.99 7.34 12.98 7 14 C5.16052663 12.21427748 3.32842259 10.42197551 1.5 8.625 C0.71302734 7.86316406 0.71302734 7.86316406 -0.08984375 7.0859375 C-1.43153181 5.76167396 -2.71995815 4.38394135 -4 3 C-4 2.34 -4 1.68 -4 1 C-2 0 -2 0 0 0 Z " fill="#072527" transform="translate(107,81)"/>
<path d="M0 0 C5.32697239 1.45281065 8.36402802 5.08111378 12 9 C11.34 9.66 10.68 10.32 10 11 C9.46375 10.2575 8.9275 9.515 8.375 8.75 C5.84735261 5.82325039 3.28172632 4.01378661 0 2 C-0.2475 2.598125 -0.495 3.19625 -0.75 3.8125 C-2.16370012 6.28647521 -3.65055383 7.43370255 -6 9 C-4.47291037 5.56404834 -2.40072955 2.88087546 0 0 Z " fill="#41EBEA" transform="translate(206,35)"/>
<path d="M0 0 C2.125 0.9375 2.125 0.9375 4 2 C4.66 1.67 5.32 1.34 6 1 C6 2.65 6 4.3 6 6 C5.67 5.34 5.34 4.68 5 4 C4.34 4 3.68 4 3 4 C2.67 4.66 2.34 5.32 2 6 C0.35 6 -1.3 6 -3 6 C-3.33 4.68 -3.66 3.36 -4 2 C-2.25 0.875 -2.25 0.875 0 0 Z " fill="#022845" transform="translate(143,65)"/>
<path d="M0 0 C1.32 0.66 2.64 1.32 4 2 C3.67 3.65 3.34 5.3 3 7 C0.03 6.505 0.03 6.505 -3 6 C-3 4.68 -3 3.36 -3 2 C-2.01 1.34 -1.02 0.68 0 0 Z " fill="#00182C" transform="translate(145,71)"/>
<path d="M0 0 C1.2065625 0.0309375 1.2065625 0.0309375 2.4375 0.0625 C2.7675 1.0525 3.0975 2.0425 3.4375 3.0625 C1.7875 4.3825 0.1375 5.7025 -1.5625 7.0625 C-2.2225 6.7325 -2.8825 6.4025 -3.5625 6.0625 C-3.605221 4.39638095 -3.60313832 2.72867115 -3.5625 1.0625 C-2.5625 0.0625 -2.5625 0.0625 0 0 Z " fill="#001120" transform="translate(129.5625,71.9375)"/>
<path d="M0 0 C0.99 0.33 1.98 0.66 3 1 C2.52797514 5.24822374 0.03344482 7.19989709 -3 10 C-3.625 8.125 -3.625 8.125 -4 6 C-3.34 5.34 -2.68 4.68 -2 4 C-1.34 4.33 -0.68 4.66 0 5 C-0.2784375 4.0409375 -0.2784375 4.0409375 -0.5625 3.0625 C-0.706875 2.381875 -0.85125 1.70125 -1 1 C-0.67 0.67 -0.34 0.34 0 0 Z " fill="#001120" transform="translate(142,99)"/>
<path d="M0 0 C-0.33 0.99 -0.66 1.98 -1 3 C-0.67 3.99 -0.34 4.98 0 6 C-1.32 6.33 -2.64 6.66 -4 7 C-4.33 5.35 -4.66 3.7 -5 2 C-5.99 1.67 -6.98 1.34 -8 1 C-4.93251126 -0.86240388 -3.40254489 -1.2151946 0 0 Z " fill="#03243A" transform="translate(137,70)"/>
<path d="M0 0 C0.33 0.66 0.66 1.32 1 2 C1.66 2 2.32 2 3 2 C3.33 1.34 3.66 0.68 4 0 C4.99 1.98 5.98 3.96 7 6 C6.01 6.66 5.02 7.32 4 8 C2 6.8125 2 6.8125 0 5 C-0.25 2.3125 -0.25 2.3125 0 0 Z " fill="#012743" transform="translate(164,66)"/>
<path d="M0 0 C1.97303774 1.97303774 2.77145934 3.54291869 4 6 C3.34 6.66 2.68 7.32 2 8 C2 7.34 2 6.68 2 6 C0.68 6 -0.64 6 -2 6 C-2.33 6.66 -2.66 7.32 -3 8 C-3.33 7.01 -3.66 6.02 -4 5 C-2.0625 2.3125 -2.0625 2.3125 0 0 Z " fill="#00203B" transform="translate(135,77)"/>
<path d="M0 0 C1.53508028 2.43338652 2.03088304 3.67124507 1.7578125 6.578125 C1.44457031 7.90070313 1.44457031 7.90070313 1.125 9.25 C0.92132813 10.14203125 0.71765625 11.0340625 0.5078125 11.953125 C0.34023437 12.62859375 0.17265625 13.3040625 0 14 C-0.66 14 -1.32 14 -2 14 C-1.03644647 4.58997722 -1.03644647 4.58997722 0 0 Z " fill="#29CAD1" transform="translate(247,146)"/>
<path d="M0 0 C1.65 0 3.3 0 5 0 C4.49396008 2.16874252 4.00016187 3.99967627 3 6 C2.34 6 1.68 6 1 6 C0.67 4.02 0.34 2.04 0 0 Z " fill="#011727" transform="translate(150,88)"/>
<path d="M0 0 C1.32 0.66 2.64 1.32 4 2 C3.34 2.66 2.68 3.32 2 4 C1.01 4 0.02 4 -1 4 C-1.66 4.99 -2.32 5.98 -3 7 C-3.33 6.01 -3.66 5.02 -4 4 C-2.68 2.68 -1.36 1.36 0 0 Z " fill="#00182C" transform="translate(137,139)"/>
<path d="M0 0 C3.7952131 1.49097658 5.61042731 3.75700849 8 7 C5 7 5 7 2.3125 4.625 C0 2 0 2 0 0 Z " fill="#25CDDA" transform="translate(114,102)"/>
<path d="M0 0 C0.99 0.33 1.98 0.66 3 1 C3.1875 3.375 3.1875 3.375 3 6 C2.01 6.66 1.02 7.32 0 8 C0.33 7.01 0.66 6.02 1 5 C0.34 4.67 -0.32 4.34 -1 4 C-0.67 2.68 -0.34 1.36 0 0 Z " fill="#000F20" transform="translate(161,74)"/>
<path d="M0 0 C0.99 0 1.98 0 3 0 C3.33 1.32 3.66 2.64 4 4 C2.35 4.66 0.7 5.32 -1 6 C-0.67 4.02 -0.34 2.04 0 0 Z " fill="#022A48" transform="translate(180,52)"/>
<path d="M0 0 C0.99 0.33 1.98 0.66 3 1 C-0.465 3.97 -0.465 3.97 -4 7 C-2.92598892 4.08482708 -2.22189824 2.22189824 0 0 Z " fill="#12CDF7" transform="translate(91,178)"/>
<path d="M0 0 C0.66 0.66 1.32 1.32 2 2 C1.625 4.625 1.625 4.625 1 7 C0.67 6.34 0.34 5.68 0 5 C-0.66 5 -1.32 5 -2 5 C-2.33 5.66 -2.66 6.32 -3 7 C-3.33 6.01 -3.66 5.02 -4 4 C-3.34 3.34 -2.68 2.68 -2 2 C-2 2.66 -2 3.32 -2 4 C-1.34 4 -0.68 4 0 4 C0 2.68 0 1.36 0 0 Z " fill="#002E52" transform="translate(148,81)"/>
<path d="M0 0 C1.65 0.33 3.3 0.66 5 1 C5 1.99 5 2.98 5 4 C2.03 3.505 2.03 3.505 -1 3 C-0.67 2.01 -0.34 1.02 0 0 Z " fill="#001220" transform="translate(143,74)"/>
</svg>
