<?xml version="1.0" encoding="UTF-8"?>
<svg version="1.1" xmlns="http://www.w3.org/2000/svg" width="256" height="256">
<path d="M0 0 C1.43279297 1.18722656 1.43279297 1.18722656 2.89453125 2.3984375 C4.12623047 3.40003906 4.12623047 3.40003906 5.3828125 4.421875 C11.34256448 9.46553385 16.13620448 15.22960672 20.89453125 21.3984375 C21.57515625 22.25179687 22.25578125 23.10515625 22.95703125 23.984375 C44.00438884 51.36238312 49.84603833 85.78321547 46.59716797 119.48291016 C43.38879258 143.78106399 32.38775296 165.70059175 16.89453125 184.3984375 C16.22679687 185.21957031 15.5590625 186.04070312 14.87109375 186.88671875 C9.8274349 192.84647073 4.06336203 197.64011073 -2.10546875 202.3984375 C-2.95882812 203.0790625 -3.8121875 203.7596875 -4.69140625 204.4609375 C-32.06941437 225.50829509 -66.49024672 231.34994458 -100.18994141 228.10107422 C-124.48809524 224.89269883 -146.407623 213.89165921 -165.10546875 198.3984375 C-165.92660156 197.73070312 -166.74773437 197.06296875 -167.59375 196.375 C-173.55350198 191.33134115 -178.34714198 185.56726828 -183.10546875 179.3984375 C-183.78609375 178.54507813 -184.46671875 177.69171875 -185.16796875 176.8125 C-206.21532634 149.43449188 -212.05697583 115.01365953 -208.80810547 81.31396484 C-205.59973008 57.01581101 -194.59869046 35.09628325 -179.10546875 16.3984375 C-178.43773437 15.57730469 -177.77 14.75617187 -177.08203125 13.91015625 C-172.0383724 7.95040427 -166.27429953 3.15676427 -160.10546875 -1.6015625 C-159.25210938 -2.2821875 -158.39875 -2.9628125 -157.51953125 -3.6640625 C-111.95368612 -38.69366116 -44.03148489 -35.70382108 0 0 Z " fill="#FDFDFE" transform="translate(209.10546875,27.6015625)"/>
<path d="M0 0 C5.71388155 1.96307757 11.43086197 3.87616116 17.2109375 5.63671875 C25.11643159 8.04687344 32.93860238 10.69168354 40.76953125 13.33203125 C47.51963462 15.59763688 54.2877251 17.7538376 61.11523438 19.77539062 C63.52927272 20.57323628 65.62421013 21.52609784 67.875 22.6875 C67.96836407 31.55523455 68.03909728 40.42279561 68.08224869 49.2909174 C68.10297659 53.41035084 68.13101712 57.52944397 68.17675781 61.64868164 C68.22075207 65.63635458 68.2442478 69.62370367 68.25450897 73.61160088 C68.26180565 75.12039718 68.27604886 76.62917913 68.29792023 78.13783455 C68.48647669 91.7043818 66.26701277 104.00820348 60.1875 116.3125 C59.84428711 117.01995361 59.50107422 117.72740723 59.14746094 118.45629883 C44.80183699 147.18318399 19.43143984 168.02794867 -9.125 181.6875 C-10.44757813 182.33332031 -10.44757813 182.33332031 -11.796875 182.9921875 C-17.15309388 184.59186361 -21.77655067 181.6344032 -26.5 179.25 C-27.54740356 178.72200806 -27.54740356 178.72200806 -28.6159668 178.18334961 C-58.3293754 162.83002841 -85.00183508 137.37415873 -95.4753418 104.94677734 C-96.41084425 101.87343559 -97.27650476 98.78602279 -98.125 95.6875 C-98.455 94.6975 -98.785 93.7075 -99.125 92.6875 C-99.21480465 90.43351841 -99.24257524 88.17690885 -99.23852539 85.92114258 C-99.23867142 85.23795456 -99.23881744 84.55476654 -99.2389679 83.85087585 C-99.23827169 81.59456193 -99.23049296 79.33833074 -99.22265625 77.08203125 C-99.22079103 75.51690211 -99.21936762 73.95177239 -99.21836853 72.38664246 C-99.21455152 68.26846707 -99.20472818 64.15032698 -99.19366455 60.03216553 C-99.18343291 55.82939125 -99.17886715 51.62661127 -99.17382812 47.42382812 C-99.16310519 39.17836922 -99.14603854 30.932939 -99.125 22.6875 C-95.35494431 21.32614398 -91.58355019 19.96856511 -87.81098938 18.61416626 C-85.91208729 17.93160583 -84.01419606 17.24623522 -82.11633301 16.56079102 C-74.57016181 13.8539448 -67.00146451 11.3318504 -59.3125 9.0625 C-50.38617904 6.42046183 -41.59708411 3.49607794 -32.8347168 0.35107422 C-20.39387248 -4.0828638 -12.57924084 -4.37339496 0 0 Z " fill="#0201FE" transform="translate(145.125,45.3125)"/>
<path d="M0 0 C17.9810095 4.49525237 17.9810095 4.49525237 23.96484375 6.62109375 C24.60717453 6.84628189 25.24950531 7.07147003 25.91130066 7.30348206 C27.24684846 7.77207028 28.5813834 8.243556 29.91485596 8.71801758 C33.38181693 9.95126348 36.85647517 11.16231797 40.33203125 12.37109375 C41.00373352 12.60492767 41.67543579 12.8387616 42.36749268 13.0796814 C48.78882109 15.30023089 55.26383106 17.22573018 61.8203125 19 C65.09735249 20.030617 67.94907691 21.43438773 71 23 C71.0933739 30.59838072 71.16410227 38.1967007 71.20724869 45.79552746 C71.22797466 49.32540076 71.2560106 52.85487675 71.30175781 56.38452148 C71.35421564 60.45820559 71.37306869 64.5314835 71.390625 68.60546875 C71.41127014 69.8507988 71.43191528 71.09612885 71.45318604 72.37919617 C71.45611955 84.03332794 68.46519691 94.31056124 62.875 104.5 C62.48812012 105.21430176 62.10124023 105.92860352 61.70263672 106.66455078 C48.90135838 129.64528252 27.43472881 148.16343876 3 158 C2.01 158 1.02 158 0 158 C0 105.86 0 53.72 0 0 Z " fill="#FBFBFE" transform="translate(129,56)"/>
<path d="M0 0 C0.66 0 1.32 0 2 0 C0.42986223 5.96652354 -2.75029782 10.82909025 -6 16 C-6.66 15.34 -7.32 14.68 -8 14 C-5.36 9.38 -2.72 4.76 0 0 Z " fill="#1D1CFF" transform="translate(195,153)"/>
<path d="M0 0 C1.36511719 0.43119141 1.36511719 0.43119141 2.7578125 0.87109375 C3.45648438 1.09925781 4.15515625 1.32742187 4.875 1.5625 C4.545 2.2225 4.215 2.8825 3.875 3.5625 C2.41484709 3.28008359 0.95690207 2.98623386 -0.5 2.6875 C-1.31210938 2.52507812 -2.12421875 2.36265625 -2.9609375 2.1953125 C-5.125 1.5625 -5.125 1.5625 -7.125 -0.4375 C-4.30685434 -1.84657283 -2.95222796 -0.94622691 0 0 Z " fill="#1D1CFF" transform="translate(204.125,64.4375)"/>
<path d="M0 0 C1.36511719 0.43119141 1.36511719 0.43119141 2.7578125 0.87109375 C3.45648438 1.09925781 4.15515625 1.32742187 4.875 1.5625 C4.545 2.2225 4.215 2.8825 3.875 3.5625 C2.41484709 3.28008359 0.95690207 2.98623386 -0.5 2.6875 C-1.31210938 2.52507813 -2.12421875 2.36265625 -2.9609375 2.1953125 C-5.125 1.5625 -5.125 1.5625 -7.125 -0.4375 C-4.30685434 -1.84657283 -2.95222796 -0.94622691 0 0 Z " fill="#1D1CFF" transform="translate(164.125,51.4375)"/>
<path d="M0 0 C0.99 0.33 1.98 0.66 3 1 C-0.3 3.64 -3.6 6.28 -7 9 C-7.66 8.34 -8.32 7.68 -9 7 C-7.57277341 5.8001722 -6.13284224 4.6154424 -4.6875 3.4375 C-3.88699219 2.77621094 -3.08648437 2.11492187 -2.26171875 1.43359375 C-1.51535156 0.96050781 -0.76898438 0.48742187 0 0 Z " fill="#1615FF" transform="translate(168,190)"/>
<path d="M0 0 C0 0.66 0 1.32 0 2 C-1.45463481 2.38909985 -2.91391207 2.76088029 -4.375 3.125 C-5.59316406 3.43824219 -5.59316406 3.43824219 -6.8359375 3.7578125 C-7.55007812 3.83773437 -8.26421875 3.91765625 -9 4 C-9.66 3.34 -10.32 2.68 -11 2 C-7.17679443 0.57741188 -4.08718695 -0.24042276 0 0 Z " fill="#2727FF" transform="translate(125,43)"/>
<path d="M0 0 C-1 2 -1 2 -2.77734375 2.703125 C-3.84662109 2.97382812 -3.84662109 2.97382812 -4.9375 3.25 C-6.00291016 3.53617188 -6.00291016 3.53617188 -7.08984375 3.828125 C-8.03537109 3.91320313 -8.03537109 3.91320313 -9 4 C-9.66 3.34 -10.32 2.68 -11 2 C-7.17679443 0.57741188 -4.08718695 -0.24042276 0 0 Z " fill="#2928FF" transform="translate(85,56)"/>
</svg>
