<?xml version="1.0" encoding="UTF-8"?>
<svg version="1.1" xmlns="http://www.w3.org/2000/svg" width="256" height="256">
<path d="M0 0 C1.258125 0.32742187 2.51625 0.65484375 3.8125 0.9921875 C35.64769018 10.39180184 61.90868581 33.14864867 77.94604492 61.83569336 C94.00329636 91.56611078 98.05509079 126.31036131 89 159 C88.67257813 160.258125 88.34515625 161.51625 88.0078125 162.8125 C78.60819816 194.64769018 55.85135133 220.90868581 27.16430664 236.94604492 C-2.56611078 253.00329636 -37.31036131 257.05509079 -70 248 C-71.258125 247.67257813 -72.51625 247.34515625 -73.8125 247.0078125 C-105.64769018 237.60819816 -131.90868581 214.85135133 -147.94604492 186.16430664 C-164.00329636 156.43388922 -168.05509079 121.68963869 -159 89 C-158.67257813 87.741875 -158.34515625 86.48375 -158.0078125 85.1875 C-148.60819816 53.35230982 -125.85135133 27.09131419 -97.16430664 11.05395508 C-67.43388922 -5.00329636 -32.68963869 -9.05509079 0 0 Z " fill="#010000" transform="translate(163,4)"/>
<path d="M0 0 C1.05058594 0.20496094 2.10117188 0.40992188 3.18359375 0.62109375 C18.57718695 3.91241979 35.16716247 12.7152179 47 23 C44.96344074 25.03655926 43.69876113 25.68295083 41.08081055 26.76147461 C40.26356506 27.10110733 39.44631958 27.44074005 38.60430908 27.79066467 C37.70750427 28.15751877 36.81069946 28.52437286 35.88671875 28.90234375 C34.94568298 29.29211899 34.00464722 29.68189423 33.03509521 30.08348083 C30.99196396 30.92919467 28.94790667 31.77267397 26.90304565 32.61419678 C21.44702794 34.85952824 15.9974082 37.12030178 10.546875 39.37890625 C9.42627182 39.84272705 8.30566864 40.30654785 7.15110779 40.78442383 C-5.38541116 45.97782695 -17.88140545 51.26654049 -30.37271118 56.56759644 C-41.20368168 61.16363207 -52.05216096 65.6884475 -63 70 C-61.5587039 73.30094573 -59.77253497 75.47109937 -57.22460938 78.00244141 C-56.45040649 78.77649323 -55.67620361 79.55054504 -54.87854004 80.34805298 C-54.04205933 81.17421112 -53.20557861 82.00036926 -52.34375 82.8515625 C-51.05664124 84.13442642 -51.05664124 84.13442642 -49.74353027 85.44320679 C-47.00034409 88.17519947 -44.25029084 90.90016148 -41.5 93.625 C-39.64667792 95.46829013 -37.79380779 97.31203478 -35.94140625 99.15625 C-31.86765474 103.21032267 -27.78956843 107.25997628 -23.7076416 111.30581665 C-22.46913126 112.53456606 -21.23363953 113.76636047 -20 115 C-20.49628906 115.4125 -20.99257812 115.825 -21.50390625 116.25 C-22.18324219 116.8275 -22.86257812 117.405 -23.5625 118 C-24.22378906 118.556875 -24.88507813 119.11375 -25.56640625 119.6875 C-28.28482217 122.27064964 -30.68932928 125.03111277 -33.13745117 127.86816406 C-36.12612166 131.28893621 -39.25364944 134.57567947 -42.375 137.875 C-47.23619178 143.03596428 -52.04746458 148.23046221 -56.76953125 153.51953125 C-59.95148648 157.05813295 -63.18512054 160.54808882 -66.41650391 164.04150391 C-69.80716701 167.70728896 -73.18966845 171.38030088 -76.5625 175.0625 C-77.01222168 175.55347168 -77.46194336 176.04444336 -77.92529297 176.55029297 C-78.83062602 177.53884515 -79.73589963 178.52745177 -80.64111328 179.51611328 C-83.37863402 182.50545052 -86.11805051 185.4930513 -88.85766602 188.48046875 C-91.25095074 191.09054429 -93.64240281 193.70226816 -96.03125 196.31640625 C-96.52818359 196.85974609 -97.02511719 197.40308594 -97.53710938 197.96289062 C-98.9210275 199.47614689 -100.30428383 200.99000832 -101.6875 202.50390625 C-103.42448634 204.37879522 -105.17248042 206.21456146 -107 208 C-118.69606014 204.27382155 -128.61204653 187.41493034 -134.265625 176.90234375 C-136.28727467 172.98271642 -138.21516678 169.03314732 -140 165 C-140.33580078 164.2467041 -140.67160156 163.4934082 -141.01757812 162.71728516 C-152.80120047 134.95032196 -152.17251884 101.86362283 -141.1875 74 C-140.16341411 71.64955349 -139.10057 69.31562009 -138 67 C-137.70754395 66.3822168 -137.41508789 65.76443359 -137.11376953 65.12792969 C-123.40773737 36.6420206 -98.59278283 14.77787269 -69.01318359 3.69238281 C-46.42474766 -4.07632981 -23.29121442 -5.26562681 0 0 Z " fill="#000000" transform="translate(156,10)"/>
<path d="M0 0 C1.258125 0.32742187 2.51625 0.65484375 3.8125 0.9921875 C35.64769018 10.39180184 61.90868581 33.14864867 77.94604492 61.83569336 C94.00329636 91.56611078 98.05509079 126.31036131 89 159 C88.67257813 160.258125 88.34515625 161.51625 88.0078125 162.8125 C78.60819816 194.64769018 55.85135133 220.90868581 27.16430664 236.94604492 C-2.56611078 253.00329636 -37.31036131 257.05509079 -70 248 C-71.258125 247.67257813 -72.51625 247.34515625 -73.8125 247.0078125 C-105.64769018 237.60819816 -131.90868581 214.85135133 -147.94604492 186.16430664 C-164.00329636 156.43388922 -168.05509079 121.68963869 -159 89 C-158.67257813 87.741875 -158.34515625 86.48375 -158.0078125 85.1875 C-148.60819816 53.35230982 -125.85135133 27.09131419 -97.16430664 11.05395508 C-67.43388922 -5.00329636 -32.68963869 -9.05509079 0 0 Z M-120 38 C-120.76183594 38.69738281 -121.52367187 39.39476562 -122.30859375 40.11328125 C-143.48629909 60.18989273 -155.50241266 90.79668136 -156.52612305 119.64038086 C-156.90178548 150.46234867 -147.57696632 181.38362391 -125.96484375 203.9453125 C-124.25838362 205.72980162 -122.75142495 207.54487343 -121.25 209.5 C-118.86556605 212.14937105 -117.28493645 212.82525452 -114 214 C-108.50754954 208.59693843 -103.07254597 203.21417432 -98.06640625 197.3515625 C-95.15787838 194.04166878 -92.13916839 190.83858003 -89.125 187.625 C-84.44918346 182.63656509 -79.82288887 177.61300903 -75.265625 172.515625 C-72.0699394 168.96731202 -68.82624735 165.46422274 -65.58374023 161.95874023 C-60.82747852 156.81661162 -56.09332215 151.65452188 -51.36328125 146.48828125 C-49.9826018 144.98100655 -48.60084325 143.47472835 -47.21875 141.96875 C-41.12670864 135.32976828 -35.05523527 128.6725803 -29 122 C-25.69856259 123.44232831 -23.51937242 125.23239693 -20.98168945 127.77539062 C-20.20440994 128.54959351 -19.42713043 129.32379639 -18.626297 130.12145996 C-17.7970018 130.95794067 -16.9677066 131.79442139 -16.11328125 132.65625 C-15.25566696 133.51432251 -14.39805267 134.37239502 -13.51445007 135.25646973 C-11.70412006 137.06981924 -9.89621954 138.88559699 -8.09057617 140.70361328 C-5.31807364 143.49438963 -2.53763519 146.27706378 0.24414062 149.05859375 C2.00047311 150.81984083 3.7563483 152.58154409 5.51171875 154.34375 C6.34708664 155.18023071 7.18245453 156.01671143 8.0431366 156.87854004 C8.81095963 157.65274292 9.57878265 158.4269458 10.36987305 159.22460938 C11.04841843 159.90696655 11.72696381 160.58932373 12.42607117 161.2923584 C14 163 14 163 15 165 C14.44530029 165.17695404 13.89060059 165.35390808 13.3190918 165.53622437 C8.02950365 167.25648787 2.91490067 169.20455409 -2.1875 171.4140625 C-2.95091202 171.74084991 -3.71432404 172.06763733 -4.50086975 172.40432739 C-6.14419045 173.107919 -7.78687926 173.81298802 -9.4289856 174.51940918 C-13.88515746 176.43565776 -18.34679938 178.33907465 -22.80859375 180.2421875 C-23.73143661 180.63595581 -24.65427948 181.02972412 -25.60508728 181.4354248 C-35.39676298 185.60666365 -45.22627393 189.68517154 -55.0625 193.75 C-58.45448963 195.15219251 -61.84642972 196.5545047 -65.23828125 197.95703125 C-66.05730927 198.29564682 -66.87633728 198.63426239 -67.72018433 198.98313904 C-77.37006017 202.97577112 -86.99895811 207.01827365 -96.62524414 211.06738281 C-97.79563232 211.55948242 -98.96602051 212.05158203 -100.171875 212.55859375 C-101.1834668 212.98454834 -102.19505859 213.41050293 -103.23730469 213.84936523 C-105.81592085 214.92333289 -108.40362305 215.96981889 -111 217 C-111 217.66 -111 218.32 -111 219 C-108.86726467 220.64857989 -106.74930127 222.14921661 -104.5 223.625 C-103.82509521 224.0686792 -103.15019043 224.5123584 -102.45483398 224.96948242 C-90.3172473 232.78892964 -77.91952771 238.24258148 -64 242 C-62.96617188 242.3196875 -61.93234375 242.639375 -60.8671875 242.96875 C-42.48717306 247.9437915 -21.11760975 246.38453216 -3 241 C-2.28344238 240.79101074 -1.56688477 240.58202148 -0.82861328 240.36669922 C31.2679494 230.71821663 56.78376974 209.0438309 72.75 179.75 C77.23728392 171.1738905 80.43821605 162.32062396 83 153 C83.3403125 151.76507813 83.680625 150.53015625 84.03125 149.2578125 C90.95965862 118.91394882 84.27342784 87.6534889 69 61 C64.11935091 53.33178651 58.22114274 46.60251548 52 40 C51.49210938 39.45085938 50.98421875 38.90171875 50.4609375 38.3359375 C48.14827181 35.90976675 46.01540266 34.41603815 43 33 C37.81760826 39.32064315 32.65196657 45.65455087 27.5 52 C22.34779421 58.34523857 17.18052012 64.67784675 12 71 C10.49985719 72.83321648 8.99985918 74.66655146 7.5 76.5 C5.29771834 79.19209947 3.09511364 81.88392614 0.890625 84.57421875 C-8.46800874 95.99926615 -17.80445165 107.44305706 -27 119 C-30.30194891 117.55662966 -32.49017493 115.76269557 -35.03417969 113.22460938 C-35.81468689 112.45040649 -36.59519409 111.67620361 -37.39935303 110.87854004 C-38.23178528 110.04205933 -39.06421753 109.20557861 -39.921875 108.34375 C-40.78186096 107.48567749 -41.64184692 106.62760498 -42.52789307 105.74353027 C-44.34250826 103.93027533 -46.15460316 102.11449519 -47.96435547 100.29638672 C-50.74615621 97.50385862 -53.53848145 94.72217542 -56.33203125 91.94140625 C-58.09178772 90.18032867 -59.85092395 88.41863106 -61.609375 86.65625 C-62.44990417 85.81976929 -63.29043335 84.98328857 -64.15643311 84.12145996 C-65.30828094 82.96015564 -65.30828094 82.96015564 -66.48339844 81.77539062 C-67.16416443 81.09303345 -67.84493042 80.41067627 -68.54632568 79.7076416 C-70 78 -70 78 -70 76 C-69.02003052 75.59612061 -69.02003052 75.59612061 -68.02026367 75.18408203 C-31.93793287 60.30394253 4.03625702 45.16403885 40 30 C29.32929179 19.08565293 14.48507055 12.35601759 0 8 C-0.7528125 7.74476562 -1.505625 7.48953125 -2.28125 7.2265625 C-44.17662865 -6.51185712 -89.01830328 8.73111253 -120 38 Z " fill="#E4A647" transform="translate(163,4)"/>
<path d="M0 0 C2.84241762 1.29334471 4.90775233 2.65590396 7.11621094 4.85742188 C7.69651062 5.43141724 8.2768103 6.0054126 8.87469482 6.59680176 C9.79523651 7.52341614 9.79523651 7.52341614 10.734375 8.46875 C11.37240051 9.10486206 12.01042603 9.74097412 12.66778564 10.3963623 C14.01161574 11.73883387 15.35293329 13.08382461 16.69189453 14.43115234 C18.74942465 16.49942165 20.81744049 18.55677328 22.88671875 20.61328125 C24.19074625 21.91862971 25.49415356 23.2245981 26.796875 24.53125 C27.41866638 25.14899292 28.04045776 25.76673584 28.68109131 26.40319824 C33 30.77006927 33 30.77006927 33 33 C32.08452393 33.38518799 31.16904785 33.77037598 30.22583008 34.16723633 C19.45546205 38.69922401 8.68632408 43.23412899 -2.08209229 47.77075195 C-4.04296332 48.59682225 -6.00386054 49.4228304 -7.96478271 50.2487793 C-13.96143698 52.77463868 -19.95756351 55.30174451 -25.95303345 57.83041382 C-27.87700792 58.64168333 -29.80113729 59.45258562 -31.72543335 60.26309204 C-34.46062311 61.41524358 -37.19522607 62.56877736 -39.9296875 63.72265625 C-40.78985977 64.08478714 -41.65003204 64.44691803 -42.53627014 64.82002258 C-46.64399811 66.55525594 -50.73531509 68.31785085 -54.80175781 70.14794922 C-55.91854416 70.64831947 -55.91854416 70.64831947 -57.05789185 71.15879822 C-58.44558694 71.78355722 -59.83030299 72.4149918 -61.21139526 73.05421448 C-62.78251582 73.76140284 -64.38894677 74.3892278 -66 75 C-66.66 74.67 -67.32 74.34 -68 74 C-67.57291748 73.54786133 -67.14583496 73.09572266 -66.70581055 72.62988281 C-59.01016389 64.47875633 -51.3355813 56.31370962 -43.78125 48.03125 C-40.50825523 44.45201011 -37.18982306 40.91545313 -33.875 37.375 C-29.33503726 32.52403098 -24.84982779 27.6330462 -20.42578125 22.67578125 C-16.62891311 18.48760947 -12.75194105 14.37403165 -8.87109375 10.26367188 C-5.75662585 6.9492888 -2.78146696 3.60560532 0 0 Z " fill="#020200" transform="translate(134,134)"/>
<path d="M0 0 C0.99 0.33 1.98 0.66 3 1 C2.2265625 1.89460938 1.453125 2.78921875 0.65625 3.7109375 C-4.69632897 9.91841235 -9.99288974 16.14803413 -15.078125 22.578125 C-18.66377294 27.09662444 -22.34152315 31.54044287 -26 36 C-27.39596765 37.70822358 -28.79179898 39.41655857 -30.1875 41.125 C-31.33178518 42.52155264 -32.4760855 43.91809289 -33.62060547 45.31445312 C-34.6416817 46.56215407 -35.66131872 47.81103313 -36.68017578 49.06054688 C-38.53426445 51.33410138 -40.39195665 53.60467681 -42.25 55.875 C-42.84063232 56.60090332 -43.43126465 57.32680664 -44.03979492 58.07470703 C-47.19505648 61.92315309 -50.40686162 65.55545005 -54 69 C-57.02510958 66.00428676 -60.04427875 63.00265195 -63.0625 60 C-63.91005859 59.16082031 -64.75761719 58.32164063 -65.63085938 57.45703125 C-72.49957651 50.61483426 -78.80561332 43.44667435 -85 36 C-78.29181546 33.1663143 -71.58344395 30.33307151 -64.875 27.5 C-63.87012543 27.07559631 -62.86525085 26.65119263 -61.82992554 26.21392822 C-50.76292422 21.5400566 -39.69475833 16.86900342 -28.62109375 12.2109375 C-27.73935486 11.83998962 -26.85761597 11.46904175 -25.94915771 11.08685303 C-21.76907366 9.3284402 -17.58863972 7.57086579 -13.40771484 5.81445312 C-11.91372846 5.18621818 -10.41975011 4.55796411 -8.92578125 3.9296875 C-7.90864296 3.502892 -7.90864296 3.502892 -6.87095642 3.06747437 C-3.40150556 1.60858169 -3.40150556 1.60858169 0 0 Z " fill="#030201" transform="translate(188,46)"/>
</svg>
