<?xml version="1.0" encoding="UTF-8"?>
<svg version="1.1" xmlns="http://www.w3.org/2000/svg" width="192" height="192">
<path d="M0 0 C63.36 0 126.72 0 192 0 C192 63.36 192 126.72 192 192 C128.64 192 65.28 192 0 192 C0 128.64 0 65.28 0 0 Z " fill="#FEFEFE" transform="translate(0,0)"/>
<path d="M0 0 C4.05161695 0.36602151 5.95615474 2.62149767 8.70507812 5.44384766 C9.15765488 5.90401779 9.61023163 6.36418793 10.07652283 6.83830261 C11.05594266 7.835802 12.0319389 8.83667199 13.00486755 9.84050369 C14.54434412 11.42756132 16.09385225 13.00415387 17.64660645 14.57821655 C22.05841637 19.05422717 26.45159095 23.54832778 30.83740234 28.04980469 C33.52231991 30.80409392 36.21920437 33.54619183 38.9236908 36.28126144 C39.95238273 37.32675927 40.97623158 38.37704485 41.99513245 39.43208694 C43.41697446 40.90415616 44.85557359 42.35998471 46.29492188 43.81494141 C47.10892456 44.64909576 47.92292725 45.48325012 48.76159668 46.34268188 C50.80384273 48.18926767 50.80384273 48.18926767 53 48.03930664 C55.74542578 46.61263702 57.54483463 44.77409819 59.70507812 42.55615234 C60.15765488 42.09598221 60.61023163 41.63581207 61.07652283 41.16169739 C62.05594266 40.164198 63.0319389 39.16332801 64.00486755 38.15949631 C65.54434412 36.57243868 67.09385225 34.99584613 68.64660645 33.42178345 C73.05841637 28.94577283 77.45159095 24.45167222 81.83740234 19.95019531 C84.52231991 17.19590608 87.21920437 14.45380817 89.9236908 11.71873856 C90.95238273 10.67324073 91.97623158 9.62295515 92.99513245 8.56791306 C94.41697446 7.09584384 95.85557359 5.64001529 97.29492188 4.18505859 C98.10892456 3.35090424 98.92292725 2.51674988 99.76159668 1.65731812 C102 0 102 0 104.29406738 0.23843384 C106 1 106 1 106.78125 2.71875 C106.88953125 3.84796875 106.88953125 3.84796875 107 5 C104.83042018 7.52524865 102.40436733 9.58411066 99.90625 11.78125 C97.78910755 13.76788668 97.78910755 13.76788668 97.96484375 16.01953125 C99.29922693 18.57248321 100.96584411 20.21656951 103.0625 22.1875 C104.38882606 23.44389675 105.70521931 24.71111809 107 26 C107 26.33 107 26.66 107 27 C103.37 27 99.74 27 96 27 C96 30.63 96 34.26 96 38 C88.90178571 31.97321429 88.90178571 31.97321429 86 29 C82.09148801 30.58431453 79.47632644 33.26635095 76.578125 36.2265625 C76.07327576 36.73424164 75.56842651 37.24192078 75.04827881 37.76498413 C73.44407904 39.38033842 71.84699144 41.00252209 70.25 42.625 C69.16061893 43.72441698 68.0707801 44.82338059 66.98046875 45.921875 C64.31498115 48.6093602 61.65584857 51.30299021 59 54 C59.66 55.32 60.32 56.64 61 58 C61.5775 57.855625 62.155 57.71125 62.75 57.5625 C63.4925 57.376875 64.235 57.19125 65 57 C66.051875 56.6596875 66.051875 56.6596875 67.125 56.3125 C67.74375 56.209375 68.3625 56.10625 69 56 C69.66 56.66 70.32 57.32 71 58 C70.6875 59.875 70.6875 59.875 70 62 C69.7215625 63.11375 69.7215625 63.11375 69.4375 64.25 C69.293125 64.8275 69.14875 65.405 69 66 C70.59313185 67.34317691 70.59313185 67.34317691 73 68 C74.65934452 67.26988841 76.31655283 66.5337259 77.953125 65.75390625 C83.50219394 63.71006979 89.33833901 64.44885463 94.75 66.5625 C100.42307025 69.38397387 104.65622516 74.10344428 107 80 C107.86445734 87.59918311 107.82862421 94.78367734 103 101 C97.65636894 106.78354258 92.55280779 109.01086995 84.6875 109.4375 C78.7919112 109.30916065 74.59244865 107.6868954 70 104 C67.97394484 101.82533443 66.43930206 99.59437221 65 97 C64.566875 96.236875 64.13375 95.47375 63.6875 94.6875 C61.72786902 87.02712435 63.07719839 80.20261826 66 73 C64.68 72.01 63.36 71.02 62 70 C61.01 70.99 60.02 71.98 59 73 C57.68 72.34 56.36 71.68 55 71 C55 67 55 67 57 64 C56.01 63.01 55.02 62.02 54 61 C52.68 61.66 51.36 62.32 50 63 C50 65.83967231 50.40267181 68.23735711 51 71 C48.75 71.6875 48.75 71.6875 46 72 C43.6875 70.5625 43.6875 70.5625 42 69 C40.43366952 71.48770135 39.95899072 72.65552204 40.3125 75.625 C40.91933648 77.98940187 40.91933648 77.98940187 42 80 C42.66133303 87.65411669 42.89455102 94.73554549 38 101 C32.86989283 106.32055198 28.39814016 109.28246342 20.875 109.5 C13.92230507 109.39050874 9.28861264 107.47341223 4 103 C1.5 99.9375 1.5 99.9375 0 97 C-0.4125 96.2575 -0.825 95.515 -1.25 94.75 C-3.03901813 88.19026685 -2.79965752 81.84713045 0.59765625 75.88671875 C4.11277021 71.15747072 9.11446889 66.26118524 15 65 C21.93084559 64.33875325 27.5754147 65.39292191 34 68 C34.99 66.68 35.98 65.36 37 64 C36.34 63.34 35.68 62.68 35 62 C35.375 59.375 35.375 59.375 36 57 C38.60582371 56.06934867 39.64198224 55.85082593 42.25 56.9375 C43.11625 57.4634375 43.11625 57.4634375 44 58 C44.99 56.68 45.98 55.36 47 54 C43.52882825 50.40540037 40.04167101 46.82741103 36.53857422 43.26391602 C35.34879385 42.04896284 34.16353583 40.82956402 32.98291016 39.60571289 C31.28671867 37.848994 29.57499725 36.1088148 27.859375 34.37109375 C27.33317566 33.81908798 26.80697632 33.26708221 26.26483154 32.698349 C24.61557418 30.98982459 24.61557418 30.98982459 22 29 C19.14159081 29.07890368 18.38003132 29.62087784 16.3671875 31.62890625 C15.87476562 32.26699219 15.38234375 32.90507813 14.875 33.5625 C13.3671875 35.50390625 13.3671875 35.50390625 12 37 C11.34 37 10.68 37 10 37 C10 33.7 10 30.4 10 27 C6.37 27 2.74 27 -1 27 C-1 26.34 -1 25.68 -1 25 C1.00817747 23.18008917 3.12186339 21.52894795 5.25 19.8515625 C7.45792908 17.94011162 7.45792908 17.94011162 7 14 C4.77624646 11.53783233 2.34967808 9.42193607 -0.12890625 7.21875 C-2 5 -2 5 -1.83984375 2.78125 C-1 1 -1 1 0 0 Z " fill="#DE3B0B" transform="translate(43,48)"/>
<path d="M0 0 C3.40137849 2.86681171 6.67789795 5.64793496 9.6875 8.9375 C11.71079507 11.21793728 11.71079507 11.21793728 13.82421875 10.9453125 C16.9666188 9.58003277 18.78632503 7.41928791 21.125 4.9375 C22.7138359 3.25672849 24.33146296 1.60167928 26 0 C28 0 28 0 30.5390625 2.32421875 C35.13994678 8.13738333 34.61325822 15.88746154 34.28515625 22.9609375 C32.93800103 32.78596064 25.42401474 38.78698115 18.12817383 44.80444336 C15.47328951 46.29589323 14.00523926 46.43728579 11 46 C3.6983822 41.89812753 -4.46982372 34.157764 -6.87988281 26.03417969 C-7.86346109 19.1709406 -8.79843916 9.90716498 -4.56298828 3.99365234 C-2.91015625 2.32421875 -2.91015625 2.32421875 0 0 Z " fill="#DE3B0A" transform="translate(82,35)"/>
<path d="M0 0 C1.9375 1.6875 1.9375 1.6875 3 4 C3.1875 7.25 3.1875 7.25 3 10 C3.886875 9.896875 4.77375 9.79375 5.6875 9.6875 C9 10 9 10 11.875 12.125 C14 15 14 15 14.625 18 C13.77618008 22.0743356 12.32274404 23.54405875 9 26 C5.6875 26.3125 5.6875 26.3125 3 26 C3.103125 26.886875 3.20625 27.77375 3.3125 28.6875 C3 32 3 32 0.9375 34.9375 C-2 37 -2 37 -5.5625 37.0625 C-9.27567907 35.91479011 -10.8317056 35.20907572 -13 32 C-13.25 28.75 -13.25 28.75 -13 26 C-13.886875 26.12375 -14.77375 26.2475 -15.6875 26.375 C-19 26 -19 26 -21.9375 23.375 C-24 20 -24 20 -24.0625 16.875 C-22.83750443 13.56030611 -21.89529638 12.03453259 -19 10 C-15.75 9.75 -15.75 9.75 -13 10 C-13.12375 9.113125 -13.2475 8.22625 -13.375 7.3125 C-13 4 -13 4 -10.4375 1.0625 C-6.84674109 -1.57526128 -4.24125963 -1.36040403 0 0 Z " fill="#FEFAF8" transform="translate(133,117)"/>
<path d="M0 0 C1.9375 1.125 1.9375 1.125 3 3 C3.1875 6.6875 3.1875 6.6875 3 10 C3.886875 9.896875 4.77375 9.79375 5.6875 9.6875 C9 10 9 10 11.875 12.125 C14 15 14 15 14.625 18 C13.77618008 22.0743356 12.32274404 23.54405875 9 26 C5.6875 26.3125 5.6875 26.3125 3 26 C3.103125 27.0725 3.20625 28.145 3.3125 29.25 C3 33 3 33 0.9375 35.5 C-2.89378967 37.45640324 -4.8999226 37.13891039 -9 36 C-10.875 34.875 -10.875 34.875 -12 33 C-12.6875 29.3125 -12.6875 29.3125 -13 26 C-13.9075 26.0825 -14.815 26.165 -15.75 26.25 C-19 26 -19 26 -21.375 24.5 C-23.34789171 21.46478198 -23.63971021 19.47802406 -23.453125 15.90625 C-23 14 -23 14 -20.8125 11.5 C-17.86008015 9.92537608 -16.28423071 9.62465935 -13 10 C-12.938125 8.9275 -12.87625 7.855 -12.8125 6.75 C-12 3 -12 3 -9.875 0.5 C-6.08386986 -1.47798094 -4.07202027 -1.13111674 0 0 Z " fill="#FEFBFB" transform="translate(68,117)"/>
<path d="M0 0 C1.90961006 19.17889485 1.90961006 19.17889485 -2.4140625 24.84375 C-5.00100639 27.5989504 -7.85241991 29.90325008 -11 32 C-11.33 32 -11.66 32 -12 32 C-13.90961006 12.82110515 -13.90961006 12.82110515 -9.5859375 7.15625 C-2.8667104 0 -2.8667104 0 0 0 Z " fill="#FDF4F2" transform="translate(109,40)"/>
<path d="M0 0 C4.60577582 2.12696623 8.16303305 4.7402468 11 9 C11.81834019 12.69639501 11.67152167 16.17515158 11.4375 19.9375 C11.40591797 20.90751953 11.37433594 21.87753906 11.34179688 22.87695312 C11.25981253 25.25449905 11.14518805 27.62561699 11 30 C6.39422418 27.87303377 2.83696695 25.2597532 0 21 C-0.81834019 17.30360499 -0.67152167 13.82484842 -0.4375 10.0625 C-0.40591797 9.09248047 -0.37433594 8.12246094 -0.34179688 7.12304688 C-0.25981253 4.74550095 -0.14518805 2.37438301 0 0 Z " fill="#FDF7F5" transform="translate(83,41)"/>
</svg>
