<?xml version="1.0" encoding="UTF-8"?>
<!DOCTYPE svg PUBLIC "-//W3C//DTD SVG 1.1//EN" "http://www.w3.org/Graphics/SVG/1.1/DTD/svg11.dtd">
<!-- Creator: CorelDRAW X5 -->
<svg xmlns="http://www.w3.org/2000/svg" xml:space="preserve" width="83.82mm" height="83.82mm" style="shape-rendering:geometricPrecision; text-rendering:geometricPrecision; image-rendering:optimizeQuality; fill-rule:evenodd; clip-rule:evenodd"
viewBox="0 0 8382 8382"
 xmlns:xlink="http://www.w3.org/1999/xlink"
 xmlns:svg="http://www.w3.org/2000/svg">
 <defs>
  <style type="text/css">
   <![CDATA[
    .fil0 {fill:#23282F}
    .fil1 {fill:white;fill-rule:nonzero}
   ]]>
  </style>
 </defs>
 <g id="Layer_x0020_1">
  <metadata id="CorelCorpID_0Corel-Layer"/>
 </g>
 <g id="Layer_x0020_1_0">
  <metadata id="CorelCorpID_1Corel-Layer"/>
  <g id="_393253280">
   <circle class="fil0" cx="4191" cy="4191" r="4193"/>
   <path class="fil1" d="M6056 1960l763 0 -1588 1605c-575,581 -1506,581 -2081,0l-1587 -1605 763 0 1206 1219c358,364 944,368 1308,10 3,-3 7,-7 10,-10l1206 -1219zm-3739 4463l0 0 -763 0 1597 -1615c575,-581 1506,-581 2081,0l1597 1615 -763 0 -1215 -1229c-358,-364 -944,-368 -1308,-10 -3,3 -7,7 -10,10l-1216 1229z"/>
  </g>
 </g>
</svg>
