<?xml version="1.0" encoding="UTF-8"?>
<svg version="1.1" xmlns="http://www.w3.org/2000/svg" width="256" height="256">
<path d="M0 0 C1.43279297 1.18722656 1.43279297 1.18722656 2.89453125 2.3984375 C4.12623047 3.40003906 4.12623047 3.40003906 5.3828125 4.421875 C11.34256448 9.46553385 16.13620448 15.22960672 20.89453125 21.3984375 C21.57515625 22.25179687 22.25578125 23.10515625 22.95703125 23.984375 C44.00438884 51.36238312 49.84603833 85.78321547 46.59716797 119.48291016 C43.38879258 143.78106399 32.38775296 165.70059175 16.89453125 184.3984375 C16.22679687 185.21957031 15.5590625 186.04070312 14.87109375 186.88671875 C9.8274349 192.84647073 4.06336203 197.64011073 -2.10546875 202.3984375 C-2.95882812 203.0790625 -3.8121875 203.7596875 -4.69140625 204.4609375 C-32.06941437 225.50829509 -66.49024672 231.34994458 -100.18994141 228.10107422 C-124.48809524 224.89269883 -146.407623 213.89165921 -165.10546875 198.3984375 C-165.92660156 197.73070312 -166.74773437 197.06296875 -167.59375 196.375 C-173.55350198 191.33134115 -178.34714198 185.56726828 -183.10546875 179.3984375 C-183.78609375 178.54507813 -184.46671875 177.69171875 -185.16796875 176.8125 C-206.21532634 149.43449188 -212.05697583 115.01365953 -208.80810547 81.31396484 C-205.59973008 57.01581101 -194.59869046 35.09628325 -179.10546875 16.3984375 C-178.43773437 15.57730469 -177.77 14.75617187 -177.08203125 13.91015625 C-172.0383724 7.95040427 -166.27429953 3.15676427 -160.10546875 -1.6015625 C-159.25210938 -2.2821875 -158.39875 -2.9628125 -157.51953125 -3.6640625 C-111.95368612 -38.69366116 -44.03148489 -35.70382108 0 0 Z " fill="#000000" transform="translate(209.10546875,27.6015625)"/>
<path d="M0 0 C1.17280774 3.51842322 0.77649723 4.42194942 -0.36767578 7.86010742 C-0.69196564 8.84931686 -1.01625549 9.83852631 -1.35037231 10.85771179 C-1.71170258 11.92947159 -2.07303284 13.00123138 -2.4453125 14.10546875 C-2.81220184 15.21747147 -3.17909119 16.32947418 -3.55709839 17.47517395 C-4.7380313 21.04878521 -5.93114098 24.61818861 -7.125 28.1875 C-8.29209803 31.70304466 -9.45668265 35.21941476 -10.62103271 38.73587036 C-11.3743945 41.01037576 -12.12881701 43.28453012 -12.88433838 45.55831909 C-15.68873929 54.01027395 -18.38190775 62.48857157 -21 71 C-12.09 71 -3.18 71 6 71 C0.37460518 81.12571068 0.37460518 81.12571068 -2.53125 85.828125 C-3.170625 86.86493408 -3.81 87.90174316 -4.46875 88.9699707 C-5.47421875 90.59358521 -5.47421875 90.59358521 -6.5 92.25 C-7.20850124 93.39727589 -7.91683205 94.54465703 -8.625 95.69213867 C-10.74737582 99.12971974 -12.87348579 102.5649774 -15 106 C-16.21875604 107.97004834 -17.43750642 109.9401002 -18.65625 111.91015625 C-20.83223707 115.42646141 -23.00949953 118.94197291 -25.1875 122.45703125 C-27.4650708 126.13391859 -29.73531251 129.81516473 -32 133.5 C-32.60199219 134.47710937 -33.20398438 135.45421875 -33.82421875 136.4609375 C-35.0697096 138.48371706 -36.31093789 140.50898563 -37.54931641 142.53613281 C-39.29997691 145.4013921 -41.05605256 148.2632853 -42.8125 151.125 C-43.37646484 152.05119141 -43.94042969 152.97738281 -44.52148438 153.93164062 C-45.05708984 154.80240234 -45.59269531 155.67316406 -46.14453125 156.5703125 C-46.62253174 157.35164551 -47.10053223 158.13297852 -47.59301758 158.93798828 C-48.91830825 160.88027616 -50.32014689 162.36885013 -52 164 C-49.83023212 155.66458407 -47.279263 147.48822309 -44.5859375 139.30859375 C-44.16644238 138.0287958 -43.74714478 136.74893309 -43.32803345 135.4690094 C-42.4573687 132.81202983 -41.58488202 130.1556584 -40.7109375 127.49975586 C-39.59049932 124.09451464 -38.4739211 120.68802275 -37.35857201 117.28111172 C-36.49678707 114.64966515 -35.63341875 112.01874036 -34.76951981 109.38798714 C-34.15673443 107.52136724 -33.54495877 105.65441596 -32.93319702 103.78746033 C-32.56256134 102.66191238 -32.19192566 101.53636444 -31.81005859 100.37670898 C-31.48379486 99.38396469 -31.15753113 98.3912204 -30.82138062 97.36839294 C-30 95 -30 95 -29 93 C-37.91 93 -46.82 93 -56 93 C-54.58451028 89.4612757 -53.28682096 86.58878858 -51.3828125 83.3671875 C-50.86485107 82.48901367 -50.34688965 81.61083984 -49.81323242 80.70605469 C-48.97755737 79.30468262 -48.97755737 79.30468262 -48.125 77.875 C-47.25161987 76.40401855 -47.25161987 76.40401855 -46.3605957 74.90332031 C-42.25521987 68.02190726 -38.03662707 61.22112885 -33.73071289 54.46386719 C-29.44018848 47.72549449 -25.24253651 40.93238876 -21.0625 34.125 C-20.39114014 33.03171387 -19.71978027 31.93842773 -19.02807617 30.81201172 C-17.68293142 28.6214262 -16.33779788 26.4308338 -14.99267578 24.24023438 C-11.83892233 19.11200406 -8.67050751 13.99288404 -5.5 8.875 C-4.66287476 7.52365967 -4.66287476 7.52365967 -3.80883789 6.14501953 C-2.5395175 4.0964983 -1.26993815 2.0481383 0 0 Z " fill="#27D6CD" transform="translate(153,47)"/>
<path d="M0 0 C1.27162597 3.8148779 0.64661571 5.3931275 -1 9 C-3.125 9.875 -3.125 9.875 -5 10 C-3.66511872 6.40608886 -2.03977277 3.24509304 0 0 Z " fill="#22BFB6" transform="translate(153,47)"/>
</svg>
